<?xml version="1.0" standalone="no"?>
<!DOCTYPE svg PUBLIC "-//W3C//DTD SVG 20010904//EN"
 "http://www.w3.org/TR/2001/REC-SVG-20010904/DTD/svg10.dtd">
<svg version="1.0" xmlns="http://www.w3.org/2000/svg"
 width="1280.000000pt" height="1174.000000pt" viewBox="0 0 1280.000000 1174.000000"
 preserveAspectRatio="xMidYMid meet">
<g transform="translate(0.000000,1174.000000) scale(0.100000,-0.100000)"
fill="#000000" stroke="none">
<path d="M6305 11734 c-22 -2 -110 -8 -195 -14 -493 -34 -1028 -137 -1600
-307 -307 -91 -532 -187 -754 -321 -208 -127 -407 -287 -433 -350 -18 -44 1
-79 72 -132 68 -51 83 -56 201 -75 53 -8 118 -25 145 -37 98 -41 222 -207 315
-417 66 -151 69 -138 -33 -137 -82 1 -91 -1 -125 -27 -64 -50 -98 -145 -173
-493 -75 -346 -27 -524 190 -696 l72 -58 6 -67 c19 -201 -1 -429 -47 -528 -38
-82 -82 -116 -163 -129 -66 -10 -227 11 -371 49 -162 43 -402 132 -410 153 -3
9 2 45 11 81 34 130 58 278 64 386 7 125 -4 175 -62 296 -64 134 -56 197 41
347 106 163 112 189 68 342 -34 117 -29 158 30 237 24 32 77 88 118 125 92 82
138 148 138 197 0 80 -89 201 -172 236 -49 20 -172 20 -252 -1 -149 -38 -333
-154 -489 -310 -52 -52 -100 -94 -106 -94 -14 0 -14 3 5 162 21 177 22 485 1
596 -31 163 -105 271 -238 345 -121 68 -217 72 -296 11 -17 -13 -36 -24 -41
-24 -5 0 -12 31 -16 69 -12 119 -61 185 -160 213 -54 15 -240 15 -293 0 -45
-13 -97 -51 -114 -85 -6 -11 -16 -41 -23 -66 -11 -45 -12 -46 -46 -43 -127 9
-289 6 -324 -7 -62 -22 -114 -75 -132 -137 l-15 -54 -42 7 c-23 5 -80 8 -127
8 -76 0 -93 -4 -150 -32 -80 -39 -145 -93 -169 -142 -72 -141 -109 -486 -151
-1416 -9 -201 -41 -631 -55 -731 -7 -48 18 -258 40 -347 21 -80 91 -228 151
-317 109 -162 261 -307 447 -425 83 -52 82 -51 91 -153 7 -73 51 -213 96 -301
159 -317 551 -697 1107 -1077 70 -48 133 -93 139 -101 9 -10 -3 -47 -53 -161
-278 -629 -464 -1577 -557 -2837 -13 -170 -21 -315 -18 -322 5 -14 172 -98
282 -142 41 -17 166 -61 278 -98 182 -61 203 -70 199 -88 -3 -11 -28 -72 -56
-135 -117 -269 -201 -679 -231 -1135 -7 -93 -15 -197 -18 -230 l-7 -59 -190
-71 c-324 -122 -500 -219 -654 -361 -63 -59 -72 -71 -69 -98 4 -37 44 -60 129
-76 220 -40 1283 -39 1844 0 465 33 797 123 900 243 34 39 55 42 55 8 0 -29
36 -67 78 -84 26 -10 92 -17 203 -22 90 -3 209 -11 264 -17 134 -13 285 -13
329 2 58 19 92 67 110 157 26 124 202 867 261 1098 65 255 120 440 144 480
l17 30 810 -4 c470 -2 816 -7 827 -12 59 -32 155 -343 252 -819 145 -713 198
-840 368 -881 28 -6 89 -25 135 -41 45 -15 126 -33 181 -39 124 -14 248 4 379
56 l89 35 44 -19 c113 -50 952 -190 1494 -250 228 -26 893 -55 1054 -47 541
27 642 36 706 65 95 43 96 90 3 176 -111 103 -382 216 -748 312 l-145 38 -8
35 c-4 19 -28 138 -52 264 -86 440 -185 794 -311 1119 -30 77 -54 145 -54 152
0 8 25 21 58 30 175 51 491 178 744 299 81 39 97 51 102 74 3 15 17 97 31 182
32 198 33 200 49 200 8 0 50 -24 93 -54 74 -51 191 -115 278 -151 308 -128
788 -16 846 197 14 53 7 190 -15 273 -22 82 -76 188 -131 258 -154 194 -567
376 -1125 495 l-175 37 -32 93 -32 92 22 14 c12 8 81 46 152 86 426 236 782
538 1038 883 273 368 456 749 516 1077 46 251 44 233 27 310 -35 151 -92 249
-209 356 -242 221 -779 505 -1339 708 -527 192 -1123 321 -1803 391 -198 20
-558 45 -665 45 -47 0 -92 4 -99 9 -11 7 -21 67 -37 228 -30 289 -30 281 4
294 123 46 198 178 228 398 19 150 19 538 -1 639 -19 95 -67 195 -106 224 -37
28 -37 50 1 125 36 72 158 193 237 236 29 15 118 52 198 83 244 91 297 125
310 195 13 72 -51 161 -195 271 -83 62 -406 274 -568 371 -162 97 -393 217
-527 272 -316 132 -798 242 -1285 294 -178 20 -562 41 -625 35z"/>
</g>
</svg>
