<svg width="500" height="466" viewBox="0 0 500 466" fill="none" xmlns="http://www.w3.org/2000/svg">
<g id="mapa_pl 1">
<path id="path1364" d="M429.186 457.156C425.287 455.807 420.938 454.372 419.52 453.968C418.103 453.563 415.493 452.296 413.721 451.152C411.949 450.008 408.353 448.414 405.729 447.61C402.991 446.772 400.611 445.118 400.145 443.73C398.803 439.738 390.721 432.912 387.336 432.912C385.63 432.912 383.845 432.318 383.37 431.591C382.873 430.833 379.685 430.43 375.884 430.646C372.242 430.852 368.359 430.488 367.255 429.837C364.989 428.5 360.428 417.26 358.25 407.646C357.327 403.572 355.903 400.79 354.332 399.996C351.385 398.507 351.102 395.72 353.798 394.743C354.861 394.358 355.731 393.271 355.731 392.328C355.731 391.385 354.861 389.932 353.798 389.098C352.507 388.087 351.865 385.353 351.865 380.875C351.865 377.186 351.209 372.102 350.409 369.578C349.072 365.366 349.26 364.556 352.687 359.737C354.741 356.849 359.776 352.265 363.876 349.549C367.976 346.834 372.605 342.661 374.162 340.275C383.4 326.127 384.705 324.672 388.194 324.633C390.101 324.612 392.02 324.047 392.458 323.378C392.896 322.708 394.38 322.161 395.756 322.161C397.872 322.161 398.257 323.029 398.257 327.807C398.257 334.301 400.51 336.666 406.756 336.726C410.202 336.76 415.01 339.781 415.01 341.913C415.01 342.296 412.98 343.741 410.5 345.123C406.779 347.196 405.989 348.347 405.989 351.694C405.989 357.05 407.96 358.672 414.466 358.672C417.427 358.672 421.932 359.494 424.476 360.498C427.021 361.502 432.463 362.323 436.571 362.323C442.982 362.323 444.219 361.95 445.311 359.684C448.109 353.88 453.892 353.733 460.52 359.297L464.148 362.343L458.392 369.491C455.226 373.423 451.912 377.937 451.027 379.522C450.143 381.107 449.009 382.678 448.509 383.013C447.139 383.93 436.918 400.137 436.918 401.393C436.918 401.994 436.432 402.486 435.839 402.486C435.246 402.486 432.802 406.02 430.408 410.339L426.055 418.192L428.367 424.263C430.102 428.82 430.459 431.998 429.797 437C428.776 444.714 431.42 450.517 436.503 451.722C438.796 452.266 439.495 453.279 439.495 456.059C439.495 460.34 438.649 460.43 429.186 457.156Z" fill="#94ADD6"/>
<path id="path1340" d="M291.872 448.662C289.547 446.235 288.462 446.175 282.92 448.166C280.801 448.927 280.629 448.801 281.953 447.452C282.839 446.551 283.564 443.184 283.564 439.971C283.564 434.135 283.56 434.129 279.168 434.129C273.813 434.129 268.1 428.494 268.1 423.212C268.1 421.288 267.252 419.478 266.167 419.084C265.104 418.699 264.234 417.353 264.234 416.093C264.234 410.467 261.46 406.327 256.412 404.419C251.751 402.658 251.347 402.133 251.347 397.84C251.347 394.456 250.476 392.4 248.175 390.359L245.003 387.545L247.853 384.051C249.42 382.129 252.877 378.327 255.535 375.601C260.632 370.373 261.674 366.708 258.401 365.522C254.859 364.238 265.629 356.238 270.899 356.238C276.377 356.238 282.053 353.856 282.973 351.171C283.496 349.646 285.585 349.046 291.448 348.737C301.926 348.185 302.895 348.88 302.895 356.95C302.895 363.243 305.127 368.729 308.664 371.128C310.88 372.631 319.693 372.16 323.315 370.346C326.733 368.633 343.19 363.54 345.307 363.54C346.855 363.54 348.258 371.105 348.496 380.726C348.613 385.446 349.417 389.605 350.438 390.767C351.58 392.067 351.682 392.749 350.734 392.749C348.141 392.749 349.031 401.054 351.772 402.439C353.413 403.269 354.772 406.036 355.773 410.588C356.606 414.378 358.402 419.934 359.763 422.934C361.125 425.934 361.927 428.682 361.547 429.042C361.166 429.402 357.092 429.598 352.493 429.478C344.516 429.271 344.132 429.392 344.132 432.115C344.132 438.331 335.567 441.307 332.624 436.113C331.117 433.454 330.154 433.217 320.298 433.09C310.258 432.961 309.478 433.137 307.509 435.975C306.356 437.637 304.393 438.997 303.148 438.997C301.729 438.997 299.649 441.272 297.581 445.086C294.287 451.159 294.273 451.168 291.872 448.662Z" fill="#94ADD6"/>
<path id="path1338" d="M241.038 433.015C241.038 432.402 238.746 429.849 235.945 427.343C231.705 423.549 230.788 421.871 230.468 417.324C230.23 413.935 229.35 411.544 228.151 411.022C218.17 406.68 218.486 407.041 218.486 399.988C218.486 393.521 218.391 393.348 214.62 392.96C212.493 392.741 210.203 392.057 209.529 391.439C208.856 390.821 206.944 390.315 205.279 390.315C201.633 390.315 190.649 379.88 191.665 377.381C192.038 376.462 193.678 375.711 195.308 375.711C196.939 375.711 201.273 374.241 204.94 372.444C210.898 369.525 211.525 368.845 210.833 366.054C208.627 357.167 208.582 354.289 210.62 352.692C211.757 351.801 212.687 350.331 212.687 349.426C212.687 348.521 214.426 346.931 216.553 345.893C218.679 344.855 220.419 343.673 220.419 343.267C220.419 342.012 214.793 333.748 213.629 333.292C213.024 333.055 213.459 331.891 214.596 330.705C215.733 329.518 217.01 326.426 217.435 323.833C217.859 321.24 219.35 318.08 220.748 316.812C222.765 314.982 223.158 313.404 222.652 309.17C221.918 303.018 223.647 301.471 231.258 301.471C234.716 301.471 236.34 302.215 237.952 304.539C239.811 307.218 240.923 307.582 246.717 307.403C254.561 307.161 258.695 309.219 259.786 313.91C260.419 316.631 261.282 317.292 264.199 317.292C266.233 317.292 268.15 318.094 268.566 319.118C268.974 320.122 270.141 320.943 271.159 320.943C272.567 320.943 272.848 322.081 272.334 325.699C271.732 329.938 272.129 330.852 275.986 334.106C280.138 337.61 280.222 337.852 278.073 340.096C275.32 342.968 275.176 346.34 277.765 347.278C283.221 349.256 275.332 354.342 268.64 353.162C265.456 352.6 263.939 353.362 258.757 358.125C252.232 364.123 251.496 365.638 254.569 366.751C257.426 367.787 256.966 369.244 252.314 373.885C241.62 384.552 240.024 388.835 245.482 392.212C247.938 393.732 248.723 395.4 249.026 399.744C249.386 404.915 249.744 405.428 253.913 406.748C257.287 407.816 258.857 409.277 260.191 412.586C262.445 418.18 261.578 420.236 255.882 422.801C252.857 424.163 250.586 426.422 249.151 429.493C247.544 432.933 246.218 434.129 244.011 434.129C242.376 434.129 241.038 433.628 241.038 433.015Z" fill="#94ADD6"/>
<path id="path1336" d="M179.405 385.064C177.864 383.515 176.603 381.618 176.603 380.848C176.603 380.078 175.444 378.861 174.026 378.145C172.609 377.428 171.449 376.262 171.449 375.554C171.449 374.845 172.609 373.979 174.026 373.629C175.941 373.156 176.603 371.969 176.603 369.012V365.032L167.719 364.558C159.354 364.111 158.533 363.799 153.686 359.221C148.444 354.272 145.416 352.436 138.667 350.121L134.881 348.822L138.99 346.463C141.344 345.111 143.098 343.092 143.098 341.736C143.098 340.276 144.123 339.219 145.773 338.98C148.26 338.618 151.828 331.755 154.235 322.705C154.6 321.33 157.463 317.569 160.597 314.346C163.73 311.123 166.294 307.474 166.294 306.238C166.294 305.002 167.454 303.404 168.871 302.688C171.616 301.301 172.424 297.819 170.002 297.819C169.003 297.819 169.052 297.255 170.16 295.994C171.042 294.99 173.433 294.168 175.473 294.168C178.322 294.168 179.181 294.732 179.181 296.602C179.181 298.704 180.04 299.037 185.466 299.037C189.482 299.037 192.332 298.377 193.356 297.211C195.155 295.164 203.081 294.724 204.31 296.602C204.748 297.272 207.012 297.819 209.341 297.819C214.109 297.819 217.841 300.903 217.841 304.842C217.841 306.255 218.421 307.751 219.13 308.164C221.138 309.336 220.653 312.117 218.024 314.507C216.707 315.704 215.282 318.805 214.857 321.399C214.433 323.992 213.191 327.047 212.097 328.188C210.037 330.339 209.345 335.548 211.12 335.548C211.676 335.548 213.108 337.111 214.303 339.021C216.428 342.418 216.406 342.523 213.292 343.863C211.542 344.616 210.109 345.998 210.109 346.935C210.109 347.871 209.166 349.377 208.014 350.28C206.309 351.616 206.055 353.458 206.65 360.165C207.212 366.493 206.99 368.408 205.698 368.408C204.771 368.408 202.539 369.504 200.737 370.842C198.935 372.181 195.706 373.277 193.562 373.277C189.41 373.277 187.401 376.171 188.704 380.275C189.387 382.424 185.572 387.881 183.387 387.881C182.738 387.881 180.947 386.614 179.405 385.064Z" fill="#94ADD6"/>
<path id="path1334" d="M117.37 373.931C115.927 372.481 114.747 370.027 114.747 368.477C114.747 365.95 110.508 360.309 103.168 353.067C99.533 349.481 99.9298 347.048 104.437 345.284C107.783 343.975 108.303 343.144 108.303 339.099C108.303 335.859 107.438 333.665 105.483 331.944C102.463 329.287 98.6487 328.694 97.3493 330.68C95.0285 334.226 81.2408 329.468 81.2408 325.12C81.2408 323.961 79.8213 323.378 77.0035 323.378C67.5033 323.378 55.4671 314.046 55.4671 306.68C55.4671 304.348 54.8602 303.79 52.5676 304.017C50.9728 304.174 48.0282 303.558 46.024 302.648C41.0959 300.411 38.1845 302.27 37.6699 307.983C37.3283 311.776 36.8113 312.424 34.126 312.424C30.3198 312.424 30.1837 311.277 33.5153 307.277C34.9086 305.604 37.0031 301.559 38.1696 298.289C39.3362 295.019 41.3857 290.186 42.7242 287.55C45.5341 282.016 45.7707 279.413 43.6461 277.406C42.5 276.324 42.4933 275.235 43.6185 272.903C45.1251 269.78 48.2187 268.83 49.668 271.044C52.1014 274.763 61.9105 270.599 61.9105 265.848C61.9105 262.467 64.4348 262.235 65.7471 265.494C66.437 267.208 67.7407 268.603 68.6442 268.594C73.3878 268.546 76.0771 266.847 77.3993 263.063C78.1821 260.823 79.946 258.654 81.319 258.242C83.0184 257.733 84.0776 255.944 84.637 252.641C85.2138 249.234 85.9825 247.977 87.2158 248.424C88.1822 248.775 88.9729 248.531 88.9729 247.882C88.9729 247.234 89.0508 246.293 89.1461 245.791C89.4638 244.117 93.6359 241.998 97.379 241.61C100.803 241.255 101.163 241.618 102.205 246.472C103.654 253.224 106.65 252.946 110.325 245.72L112.991 240.476L118.379 245.997C121.343 249.033 123.767 252.619 123.767 253.966C123.767 255.577 126.137 257.901 130.696 260.759C139.982 266.582 149.755 267.734 156.76 263.83L161.554 261.159L164.246 263.81C166.145 265.679 166.463 266.628 165.327 267.029C164.441 267.341 163.717 268.855 163.717 270.393C163.717 272.683 164.745 273.434 169.39 274.539C174.984 275.869 175.072 275.97 175.596 281.681C175.888 284.868 176.38 288.296 176.688 289.3C177.101 290.646 176.232 291.104 173.382 291.041C169.089 290.948 166.397 293.393 166.335 297.443C166.312 298.91 165.714 300.448 165.005 300.862C164.296 301.276 163.717 302.613 163.717 303.833C163.717 305.053 161.153 308.689 158.019 311.912C154.886 315.135 152.023 318.896 151.657 320.271C149.251 329.321 145.682 336.184 143.195 336.545C141.529 336.788 140.52 337.841 140.52 339.34C140.52 340.74 138.906 342.614 136.662 343.82C134.541 344.96 132.801 346.617 132.796 347.501C132.792 348.386 131.918 349.931 130.855 350.935C127.867 353.757 128.524 356.174 133.433 360.42C139.081 365.306 139.106 366.875 133.552 367.859C131.137 368.287 127.099 370.421 124.577 372.603L119.993 376.568L117.37 373.931Z" fill="#94ADD6"/>
<path id="path1332" d="M311.241 368.694C307.7 366.293 305.472 360.809 305.472 354.498C305.472 346.134 303.92 345.171 291.813 346.017C282.237 346.687 277.82 345.354 280.676 342.658C283.613 339.883 282.536 334.754 278.31 331.396C274.561 328.417 274.426 328.011 275.832 323.985C276.651 321.643 277.763 319.726 278.303 319.726C279.589 319.726 282.276 314.111 282.276 311.422C282.276 309.7 283.214 309.402 287.43 309.781L292.585 310.246V305.38C292.585 302.202 291.922 300.274 290.674 299.821C289.586 299.427 289.09 298.322 289.523 297.257C290.064 295.926 292.104 295.385 296.589 295.385C301.962 295.385 302.895 295.038 302.895 293.033C302.895 291.74 304.054 290.334 305.472 289.909C306.889 289.484 308.049 288.145 308.049 286.933C308.049 281.497 314.912 280.995 316.329 286.327C316.789 288.058 318.365 289.561 320.17 289.988C321.853 290.387 324.515 292.109 326.085 293.815C328.684 296.638 329.577 296.854 336.033 296.225C342.148 295.629 343.21 295.837 343.734 297.731C344.083 298.989 346.436 300.52 349.24 301.313C351.933 302.075 354.856 303.518 355.736 304.519C357.8 306.868 363.974 306.865 366.04 304.513C366.922 303.509 369.475 302.688 371.712 302.688C375.718 302.688 375.826 302.844 378.874 313.106C381.92 323.364 381.931 323.585 379.582 327.407C378.269 329.542 376.421 331.729 375.475 332.266C374.528 332.804 372.627 335.332 371.249 337.882C369.746 340.663 366.226 344.046 362.455 346.331C355.981 350.254 349.287 356.511 349.287 358.638C349.287 359.301 347.692 360.177 345.743 360.586C337.718 362.268 323.934 366.305 320.737 367.909C317 369.785 313.3 370.09 311.241 368.694Z" fill="#94ADD6"/>
<path id="path1330" d="M426.608 358.063C424.127 357.161 419.749 356.381 416.879 356.331C407.585 356.166 405.639 351.028 413.387 347.11C416.035 345.771 418.406 343.669 418.655 342.438C419.343 339.045 413.942 334.338 409.309 334.292C403.088 334.232 400.835 331.86 400.835 325.373V319.726H395.756C392.963 319.726 390.319 320.274 389.881 320.943C389.443 321.613 388.042 322.161 386.768 322.161C383.205 322.161 379.642 308.234 380.077 296.005C380.267 290.657 381.035 285.923 381.784 285.486C382.584 285.019 382.78 283.257 382.26 281.215C381.772 279.303 380.81 274.726 380.122 271.044C379.24 266.328 377.926 263.618 375.677 261.871C371.613 258.715 371.594 256.44 375.632 256.44C380.18 256.44 382.793 252.148 382.793 244.679C382.793 241.186 383.373 237.989 384.082 237.576C385.928 236.498 385.675 229.98 383.759 229.271C382.873 228.944 384.045 228.279 386.364 227.796C388.682 227.312 390.891 226.439 391.272 225.856C391.654 225.273 395.411 224.797 399.622 224.797C403.867 224.797 407.278 224.254 407.278 223.579C407.278 222.91 409.637 222.362 412.52 222.362C417.175 222.362 417.67 222.09 416.943 219.928C416.372 218.229 416.711 217.494 418.069 217.494C419.138 217.494 420.371 218.042 420.809 218.711C421.933 220.429 426.83 220.154 429.527 218.221C430.778 217.324 433.141 214.192 434.777 211.261C438.13 205.253 442.551 203.797 447.498 207.07C449.082 208.118 451.319 208.975 452.468 208.975C453.618 208.975 456.243 210.343 458.303 212.016C460.362 213.689 462.565 215.058 463.198 215.059C463.835 215.059 464.037 219.354 463.65 224.676C463.207 230.781 463.458 234.771 464.338 235.601C465.326 236.534 465.104 237.556 463.563 239.164C462.032 240.761 461.403 243.61 461.403 248.937C461.403 255.44 461.838 256.813 464.624 259.101C467.415 261.393 467.846 262.76 467.846 269.31C467.846 276.008 468.281 277.312 471.657 280.726C475.741 284.854 483.31 297.244 483.31 299.801C483.31 300.653 484.102 301.788 485.069 302.323C486.036 302.858 487.8 305.093 488.988 307.288C490.934 310.884 490.952 311.467 489.163 313.156C486.416 315.75 486.662 317.686 490.398 322.885C494.063 327.985 494.313 330.52 491.819 337.285C489.937 342.393 486.798 345.284 483.135 345.284C481.129 345.284 472.999 352.447 468.695 358.005C467.258 359.861 466.674 359.711 462.15 356.315C458.304 353.428 455.899 352.587 451.5 352.587C446.538 352.587 445.541 353.048 443.623 356.23C441.74 359.355 440.695 359.862 436.273 359.789C433.438 359.742 429.089 358.966 426.608 358.063Z" fill="#94ADD6"/>
<path id="path1328" d="M271.734 317.394C270.698 315.826 268.709 314.858 266.526 314.858C263.862 314.858 262.802 314.132 262.21 311.905C260.84 306.753 256.931 304.513 249.304 304.513C243.583 304.513 242.025 304.037 240.346 301.775C238.63 299.463 237.134 299.037 230.731 299.037C226.561 299.037 222.772 299.611 222.312 300.314C221.806 301.087 220.276 300.367 218.432 298.488C216.477 296.496 214.008 295.385 211.535 295.385C209.417 295.385 207.326 294.838 206.888 294.168C206.449 293.499 204.676 292.951 202.945 292.951C201.215 292.951 199.8 292.487 199.8 291.92C199.8 291.354 198.64 289.627 197.222 288.083C194.116 284.7 193.87 279.253 196.722 277.017C197.865 276.121 200.687 275.542 202.993 275.73C208.121 276.147 208.723 274.625 208.931 260.699C209.151 246.07 209.693 244.95 216.762 244.513C224.964 244.007 229.345 239.759 227.2 234.392C225.134 229.222 227.002 225.08 231.628 224.579C234.617 224.255 235.306 223.536 235.629 220.398C235.901 217.767 236.984 216.194 239.173 215.252C241.159 214.398 242.334 212.871 242.346 211.131C242.373 207.3 244.049 205.167 248.331 203.513C251.586 202.256 252.562 202.49 257.146 205.627C261.842 208.839 262.99 209.096 270.033 208.507C274.286 208.151 279.723 207.7 282.116 207.504C286.76 207.125 288.002 208.269 289.305 214.125C289.76 216.169 291.527 218.174 293.892 219.329C297.348 221.017 297.74 221.799 297.74 227.018C297.74 230.214 298.436 233.486 299.286 234.29C300.185 235.138 304.493 235.75 309.571 235.75C318.058 235.75 318.332 235.846 319.079 239.097C319.502 240.938 320.478 243.671 321.247 245.17C323.332 249.231 319.261 253.169 314.088 252.096C307.98 250.829 305.59 257.612 310.627 261.917C312.044 263.128 313.204 265.294 313.204 266.73C313.204 268.166 313.842 269.943 314.622 270.68C315.654 271.655 315.303 272.241 313.334 272.831C311.845 273.277 310.614 274.29 310.598 275.082C310.582 275.873 309.435 277.89 308.049 279.564C306.663 281.237 305.516 283.528 305.501 284.654C305.485 285.781 304.312 287.05 302.895 287.475C301.477 287.899 300.317 289.306 300.317 290.599C300.317 292.604 299.385 292.951 294.012 292.951C289.451 292.951 287.49 293.484 286.924 294.876C285.561 298.231 286.075 301.523 288.075 302.248C290.547 303.143 290.61 307.556 288.151 307.556C287.129 307.556 285.935 307.008 285.497 306.339C283.765 303.692 281.023 305.344 279.753 309.798C279.019 312.371 277.292 315.702 275.915 317.202L273.411 319.929L271.734 317.394Z" fill="#94ADD6"/>
<path id="path1326" d="M358.313 302.085C357.433 301.084 354.51 299.641 351.817 298.879C348.937 298.065 346.662 296.561 346.293 295.229C345.461 292.223 341.791 291.01 338.824 292.759C335.108 294.951 331.385 294.434 328.284 291.295C326.724 289.714 324.143 288.035 322.55 287.563C320.957 287.09 319.298 285.366 318.864 283.732C318.401 281.991 316.833 280.466 315.08 280.05C311.63 279.232 312.115 276.403 315.9 275.268C318.522 274.483 319.351 269.333 317.07 268.002C316.361 267.588 315.781 265.998 315.781 264.467C315.781 262.937 314.635 260.706 313.234 259.508C309.945 256.697 311 255.223 316.302 255.223C318.768 255.223 321.428 254.293 322.669 252.997C324.927 250.641 325.588 243.654 323.66 242.529C323.031 242.162 322.135 239.939 321.668 237.589L320.819 233.316H312.115C307.063 233.316 302.761 232.703 301.864 231.855C301.013 231.052 300.317 227.796 300.317 224.62C300.317 219.531 299.899 218.655 296.803 217.254C294.765 216.331 292.808 214.131 292.142 212.015C289.963 205.083 289.456 204.701 282.769 204.945C279.308 205.072 274.012 205.54 271.001 205.986C266.238 206.691 264.687 206.288 259.081 202.89C252.154 198.693 251.129 196.435 255.213 194.37C257.944 192.99 258.672 188.387 256.485 186.322C254.738 184.672 257.463 177.242 260.589 175.133C263.109 173.432 263.838 167.043 261.657 165.77C260.948 165.356 260.368 163.681 260.368 162.047C260.368 159.923 261.077 159.076 262.856 159.076C264.438 159.076 265.493 158.098 265.755 156.387C266.015 154.693 267.358 153.431 269.389 152.974C272.287 152.323 272.61 151.646 272.61 146.24C272.61 140.27 272.646 140.22 278.054 138.444C282.478 136.992 284.305 136.933 287.811 138.13C290.183 138.94 294.692 139.589 297.831 139.572C303.217 139.542 303.672 139.268 305.9 134.703C308.161 130.072 308.518 129.867 314.293 129.867C319.312 129.867 320.538 129.407 321.597 127.128C322.456 125.279 324.185 124.269 326.922 124.018C329.152 123.814 331.996 122.581 333.243 121.28C334.807 119.647 337.199 118.913 340.953 118.913C344.057 118.913 347.04 118.178 347.898 117.201C348.726 116.26 352.205 115.301 355.63 115.072L361.856 114.654L362.514 125.58C363.039 134.284 363.633 136.759 365.435 137.75C369.987 140.254 375.061 145.669 375.061 148.024C375.061 154.178 382.818 161.51 389.328 161.51C391.087 161.51 393.195 162.587 394.092 163.944C395.202 165.623 397.097 166.378 400.201 166.378C404.037 166.378 404.701 166.791 404.701 169.177C404.701 170.717 405.379 172.617 406.208 173.4C407.359 174.488 407.325 175.943 406.063 179.555C403.773 186.108 404.982 188.526 413.094 193.612C418.997 197.314 421.241 198.021 427.075 198.021C431.68 198.021 434.566 198.637 435.629 199.847C436.511 200.851 438.467 201.737 439.975 201.817C442.025 201.924 441.789 202.154 439.038 202.729C436.407 203.279 434.505 205.009 432.359 208.803C429.058 214.641 424.698 218.282 423.395 216.29C422.952 215.614 420.54 215.06 418.035 215.06C414.564 215.06 413.32 215.639 412.806 217.494C412.329 219.218 411.048 219.928 408.416 219.928C406.373 219.928 404.701 220.476 404.701 221.145C404.701 221.82 401.289 222.362 397.045 222.362C392.834 222.362 389.076 222.839 388.695 223.422C388.313 224.005 386.25 224.813 384.108 225.217C379.973 225.999 378.868 229.123 381.762 231.855C382.965 232.991 382.965 233.64 381.762 234.776C380.911 235.58 380.216 239.018 380.216 242.416C380.216 249.709 377.56 254.006 373.055 254.006C368.364 254.006 368.583 260.829 373.39 264.448C376.148 266.525 376.91 268.182 377.052 272.405C377.15 275.338 377.389 278.286 377.583 278.955C378.138 280.877 377.553 295.766 376.83 298.124C376.337 299.727 374.803 300.254 370.621 300.254C367.256 300.254 364.435 300.973 363.463 302.079C361.444 304.377 360.328 304.378 358.313 302.085Z" fill="#94ADD6"/>
<path id="path1324" d="M180.659 290.821C179.732 287.642 178.674 282.434 178.308 279.247C177.649 273.518 177.575 273.438 171.679 272.036C168.399 271.256 166.426 270.394 167.293 270.121C169.958 269.282 169.079 263.133 165.889 260.303C162.113 256.953 160.144 256.972 156.286 260.395C151.209 264.9 142.65 264.205 133.643 258.557C128.721 255.471 126.345 253.169 126.345 251.486C126.345 250.114 123.491 246.142 120.002 242.658C116.514 239.175 113.248 234.775 112.744 232.881C111.874 229.605 111.562 229.474 106.354 230.212C101.335 230.923 100.814 230.744 100.102 228.066C99.6751 226.459 96.7063 222.864 93.5049 220.077C87.1348 214.532 86.8414 213.344 89.1548 202.465C90.4579 196.337 90.3642 195.278 88.3326 193.157C86.4338 191.176 86.3249 190.44 87.6988 188.877C89.0383 187.353 89.0483 186 87.7511 181.856C86.8674 179.033 85.6469 175.811 85.0389 174.697C84.3178 173.375 84.5385 172.197 85.6741 171.307C86.6314 170.556 87.7972 168.016 88.2648 165.662C88.7325 163.308 89.9744 161.071 91.0247 160.69C93.7227 159.712 96.705 153.785 96.705 149.4C96.705 146.082 97.1176 145.688 100.597 145.688C105.579 145.688 114.489 140.4 116.053 136.515C116.717 134.867 117.999 133.517 118.903 133.517C121.525 133.515 130.211 124.355 130.211 121.592C130.211 120.205 129.131 118.753 127.803 118.356C126.479 117.959 124.36 116.553 123.093 115.231C120.861 112.902 120.886 112.828 123.89 112.823C129.287 112.815 135.143 108.55 135.601 104.293C136.003 100.556 136.055 100.529 138.587 102.736C145.7 108.937 149.633 110.691 154.706 109.925C160.284 109.083 162.893 111.041 159.403 113.451C156.044 115.771 156.673 122.137 160.495 124.502C164.542 127.006 164.608 129.535 160.671 131.229C158.012 132.374 157.529 133.634 156.859 141.18C156.03 150.515 156.637 151.988 162.492 154.848C167.341 157.215 168.097 160.911 164.225 163.308C159.714 166.099 159.816 173.32 164.382 174.403C166.165 174.825 168.775 174.887 170.181 174.54C172.214 174.038 172.737 174.516 172.737 176.875C172.737 180.64 175.996 181.88 179.044 179.274C181.659 177.039 183.28 178.095 184.9 183.085C185.49 184.905 187.401 186.209 190.707 187.05C193.416 187.739 196.352 189.12 197.23 190.119C199.383 192.569 207.532 192.562 207.532 190.111C207.532 187.519 209.8 187.85 211.697 190.719C212.68 192.206 214.702 193.153 216.895 193.153C219.428 193.153 220.808 193.958 221.591 195.892C223.741 201.201 227.563 203.29 233.488 202.395C237.018 201.862 239.207 202.061 239.802 202.97C241.023 204.836 238.351 211.64 235.645 213.552C234.451 214.396 233.291 216.584 233.068 218.415C232.748 221.03 231.844 221.875 228.842 222.361C224.107 223.128 221.714 229.088 223.922 234.613C225.145 237.672 224.944 238.294 222.183 240.002C220.093 241.296 217.663 241.686 214.825 241.183C208.291 240.025 207.141 242.334 206.314 258.273C205.921 265.858 205.22 272.42 204.758 272.856C204.295 273.291 202.68 272.925 201.169 272.042C198.691 270.593 198.063 270.823 194.753 274.391C192.735 276.567 190.435 278.347 189.643 278.347C187.691 278.347 187.825 280.252 189.917 282.227C190.861 283.118 192.032 285.348 192.519 287.182C193.007 289.017 193.974 290.517 194.67 290.517C195.365 290.517 195.934 291.065 195.934 291.734C195.934 292.404 195.312 292.951 194.553 292.951C193.794 292.951 192.302 293.773 191.239 294.777C190.176 295.781 187.74 296.602 185.825 296.602C182.768 296.602 182.139 295.899 180.659 290.821Z" fill="#94ADD6"/>
<path id="path1322" d="M52.1706 268.496C51.6911 267.763 49.0494 267.367 46.2955 267.615C43.1817 267.896 41.2916 267.552 41.2916 266.705C41.2916 265.957 39.0407 264.708 36.2897 263.929C29.6172 262.041 27.9883 260.067 29.6657 255.9C31.9857 250.137 31.234 246.17 27.116 242.444C24.9897 240.52 23.2661 238.364 23.2858 237.652C23.3055 236.941 25.0854 234.168 27.241 231.49L31.1603 226.622L30.2735 213.843C29.6868 205.387 28.5783 199.465 26.9969 196.338C24.6534 191.704 24.6563 191.547 27.1502 188.24C30.0099 184.447 30.5168 177.379 28.0933 175.09C26.819 173.887 26.8846 173.345 28.4155 172.431C29.4727 171.8 31.3105 171.275 32.4994 171.265C35.3241 171.241 40.0029 165.567 40.0029 162.166C40.0029 160.7 41.4505 158.216 43.2199 156.646C46.1363 154.058 46.7452 153.947 49.735 155.459C52.6928 156.953 53.6321 156.818 58.8397 154.145C62.0334 152.506 65.5705 150.207 66.6999 149.035C67.8293 147.864 69.7523 146.905 70.9732 146.905C72.1941 146.905 73.915 146.084 74.7974 145.08C75.6797 144.076 77.9979 143.254 79.9488 143.254C81.8998 143.254 85.3082 142.912 87.5231 142.494C90.9129 141.853 91.5503 141.179 91.5503 138.234C91.5503 135.985 92.2194 134.735 93.4226 134.735C94.905 134.735 95.159 136.065 94.6423 141.124C93.4138 153.155 92.7518 155.313 89.5635 157.681C87.8147 158.98 86.0267 161.73 85.5901 163.792C85.1535 165.854 83.9962 168.168 83.0185 168.934C80.8445 170.638 80.6983 175.115 82.7533 177.056C83.6295 177.884 84.2127 181.796 84.1395 186.355C84.0582 191.421 84.6047 194.689 85.6734 195.526C86.8784 196.471 87.0438 198.243 86.2764 201.988C85.6948 204.827 85.1938 209.466 85.163 212.297C85.1131 216.87 85.7555 218.009 90.9276 222.511C94.129 225.298 97.1045 228.919 97.5399 230.557C98.2508 233.232 98.8984 233.493 103.895 233.118C110.614 232.613 111.676 234.556 108.652 241.826C106.525 246.939 104.437 247.245 104.437 242.444C104.437 240.849 103.836 239.194 103.101 238.765C100.571 237.288 91.1325 239.685 88.0632 242.584C86.3728 244.18 84.5102 245.486 83.9243 245.486C83.3383 245.486 82.4786 247.732 82.0138 250.477C81.4214 253.976 80.4254 255.652 78.6825 256.082C77.2922 256.426 75.5598 258.518 74.7525 260.828C73.0175 265.793 69.4231 266.318 67.2997 261.917C66.4924 260.243 65.0655 258.874 64.1289 258.874C61.7815 258.874 59.3331 261.387 59.3331 263.797C59.3331 265.683 55.5514 269.827 53.8308 269.827C53.3969 269.827 52.6498 269.228 52.1706 268.496Z" fill="#94ADD6"/>
<path id="path1320" d="M242.326 200.301C242.326 199.38 240.111 199.13 235.585 199.54C228.445 200.188 226.881 199.348 224.273 193.457C223.399 191.484 221.984 190.719 219.207 190.719C216.674 190.719 214.882 189.886 213.975 188.285C212.258 185.254 203.666 184.747 203.666 187.676C203.666 190.21 200.638 189.96 198.001 187.208C196.791 185.946 194.218 184.614 192.283 184.249C189.865 183.792 188.077 182.224 186.57 179.241C184.263 174.671 179.99 173.403 176.861 176.358C175.658 177.494 175.315 177.053 175.315 174.373C175.315 171.173 175.016 170.971 171.127 171.533C163.175 172.681 161.129 169.578 167.12 165.457C172.068 162.053 170.666 155.72 164.068 151.661C159.436 148.811 159.315 148.549 159.685 142.133C159.989 136.854 160.688 135.071 163.18 133.221C167.408 130.08 167.356 124.719 163.072 122.068C159.457 119.83 158.872 117.094 161.784 116.039C162.847 115.654 163.717 114.603 163.717 113.703C163.717 111.612 168.487 102.242 170.002 101.358C170.635 100.989 172.985 101.29 175.225 102.027C178.628 103.148 179.713 103.014 181.817 101.216C183.202 100.032 184.336 98.3851 184.336 97.5564C184.336 95.8581 187.175 94.5722 190.925 94.5722C192.307 94.5722 193.771 93.7507 194.179 92.7466C195.266 90.0722 202.694 90.389 204.545 93.1886C205.672 94.8929 208.313 95.6673 215.173 96.3057C222.963 97.0306 224.82 97.6735 227.837 100.689C230.728 103.577 232.901 104.396 239.749 105.178L248.125 106.134L248.527 110.73C248.959 115.664 251.976 118.12 264.882 124.042C269.953 126.368 270.677 127.187 270.677 130.587C270.677 133.15 271.446 134.768 272.933 135.335C274.958 136.108 274.905 136.299 272.41 137.209C269.038 138.439 267.15 144.967 269.42 147.549C270.989 149.335 270.787 149.489 264.556 151.244C263.67 151.493 262.945 152.81 262.945 154.169C262.945 155.773 262.099 156.642 260.537 156.642C257.02 156.642 255.757 164.801 258.784 167.96C260.877 170.144 260.842 170.374 258.102 172.47C256.513 173.685 255.213 175.276 255.213 176.005C255.213 176.735 254.633 177.332 253.925 177.332C252.159 177.332 252.289 187.471 254.076 189.159C255.138 190.161 254.799 190.943 252.788 192.129C251.287 193.014 250.058 194.957 250.058 196.446C250.058 197.935 248.937 199.72 247.566 200.413C244.317 202.055 242.326 202.012 242.326 200.301Z" fill="#94ADD6"/>
<g id="LublinGroup">
<rect id="Rectangle 1" x="377" y="250" width="118" height="31" rx="7" fill="#343434"/>
<path id="TARGI LUBLIN" d="M396.558 262.406V261.273H403.312V262.406H400.589V270H399.277V262.406H396.558ZM404.511 270H403.113L406.254 261.273H407.775L410.916 270H409.518L407.051 262.858H406.983L404.511 270ZM404.745 266.582H409.279V267.69H404.745V266.582ZM412.176 270V261.273H415.287C415.963 261.273 416.524 261.389 416.97 261.622C417.419 261.855 417.754 262.178 417.976 262.589C418.197 262.999 418.308 263.472 418.308 264.009C418.308 264.543 418.196 265.013 417.972 265.419C417.75 265.822 417.415 266.136 416.966 266.361C416.52 266.585 415.959 266.697 415.283 266.697H412.926V265.564H415.163C415.589 265.564 415.936 265.503 416.203 265.381C416.473 265.259 416.67 265.081 416.795 264.848C416.92 264.615 416.983 264.335 416.983 264.009C416.983 263.679 416.919 263.393 416.791 263.152C416.666 262.911 416.469 262.726 416.199 262.598C415.932 262.467 415.581 262.402 415.146 262.402H413.493V270H412.176ZM416.484 266.062L418.641 270H417.141L415.027 266.062H416.484ZM425.817 264.03C425.734 263.771 425.624 263.54 425.484 263.335C425.348 263.128 425.185 262.952 424.994 262.807C424.804 262.659 424.587 262.547 424.342 262.47C424.101 262.393 423.835 262.355 423.545 262.355C423.054 262.355 422.611 262.482 422.216 262.734C421.821 262.987 421.508 263.358 421.278 263.847C421.051 264.332 420.937 264.928 420.937 265.632C420.937 266.339 421.053 266.937 421.283 267.426C421.513 267.915 421.828 268.286 422.229 268.538C422.629 268.791 423.085 268.918 423.597 268.918C424.071 268.918 424.484 268.821 424.837 268.628C425.192 268.435 425.466 268.162 425.659 267.81C425.855 267.455 425.953 267.037 425.953 266.557L426.294 266.621H423.797V265.534H427.227V266.527C427.227 267.26 427.071 267.896 426.758 268.436C426.449 268.973 426.02 269.388 425.472 269.68C424.926 269.973 424.301 270.119 423.597 270.119C422.807 270.119 422.114 269.938 421.517 269.574C420.923 269.21 420.46 268.695 420.128 268.027C419.795 267.357 419.629 266.561 419.629 265.641C419.629 264.945 419.726 264.32 419.919 263.766C420.112 263.212 420.383 262.741 420.733 262.355C421.085 261.966 421.499 261.669 421.973 261.464C422.45 261.257 422.972 261.153 423.537 261.153C424.008 261.153 424.447 261.223 424.854 261.362C425.263 261.501 425.626 261.699 425.945 261.955C426.266 262.21 426.531 262.514 426.741 262.866C426.952 263.216 427.094 263.604 427.168 264.03H425.817ZM430.215 261.273V270H428.899V261.273H430.215ZM435.309 270V261.273H436.626V268.866H440.58V270H435.309ZM447.695 261.273H449.016V267.013C449.016 267.624 448.872 268.165 448.585 268.636C448.298 269.105 447.895 269.474 447.375 269.744C446.855 270.011 446.246 270.145 445.547 270.145C444.851 270.145 444.243 270.011 443.723 269.744C443.203 269.474 442.8 269.105 442.513 268.636C442.226 268.165 442.082 267.624 442.082 267.013V261.273H443.399V266.906C443.399 267.301 443.486 267.652 443.659 267.959C443.835 268.266 444.084 268.507 444.405 268.683C444.726 268.857 445.106 268.943 445.547 268.943C445.99 268.943 446.372 268.857 446.693 268.683C447.017 268.507 447.264 268.266 447.435 267.959C447.608 267.652 447.695 267.301 447.695 266.906V261.273ZM450.93 270V261.273H454.126C454.745 261.273 455.258 261.375 455.664 261.58C456.071 261.781 456.375 262.055 456.576 262.402C456.778 262.746 456.879 263.134 456.879 263.565C456.879 263.929 456.812 264.236 456.679 264.486C456.545 264.733 456.366 264.932 456.142 265.082C455.92 265.23 455.676 265.338 455.409 265.406V265.491C455.698 265.506 455.981 265.599 456.257 265.773C456.535 265.943 456.765 266.186 456.947 266.501C457.129 266.817 457.22 267.2 457.22 267.652C457.22 268.098 457.115 268.499 456.904 268.854C456.697 269.206 456.376 269.486 455.941 269.693C455.507 269.898 454.951 270 454.275 270H450.93ZM452.247 268.871H454.147C454.778 268.871 455.23 268.749 455.502 268.504C455.775 268.26 455.912 267.955 455.912 267.588C455.912 267.312 455.842 267.06 455.703 266.83C455.564 266.599 455.365 266.416 455.106 266.28C454.85 266.143 454.546 266.075 454.194 266.075H452.247V268.871ZM452.247 265.048H454.011C454.306 265.048 454.572 264.991 454.808 264.878C455.046 264.764 455.235 264.605 455.375 264.401C455.517 264.193 455.588 263.949 455.588 263.668C455.588 263.307 455.461 263.004 455.208 262.76C454.956 262.516 454.568 262.393 454.045 262.393H452.247V265.048ZM458.782 270V261.273H460.098V268.866H464.053V270H458.782ZM466.872 261.273V270H465.555V261.273H466.872ZM475.833 261.273V270H474.623L470.187 263.599H470.106V270H468.789V261.273H470.008L474.448 267.682H474.529V261.273H475.833Z" fill="white"/>
</g>
<path id="path1318" d="M438.206 197.413C437.143 196.203 434.258 195.587 429.652 195.587C423.828 195.587 421.573 194.879 415.726 191.212C411.888 188.806 408.42 186.028 408.018 185.039C407.178 182.973 409.34 178.549 411.189 178.549C413.189 178.549 412.574 175.746 409.855 172.463C408.469 170.79 407.322 168.189 407.307 166.682C407.278 163.916 406.66 163.605 400.835 163.432C398.509 163.362 397.718 162.743 397.991 161.206C398.296 159.494 397.426 159.076 393.561 159.076C385.476 159.076 377.638 152.437 377.638 145.59C377.638 143.235 372.565 137.82 368.012 135.316C366.206 134.323 365.615 131.835 365.08 122.976L364.41 111.879L369.729 111.031C372.654 110.564 375.333 109.745 375.683 109.211C376.032 108.677 379.007 107.86 382.295 107.394C388.422 106.526 389.812 105.532 398.228 95.9978C400.693 93.2056 403.339 90.921 404.108 90.921C406.551 90.921 412.819 83.822 414.571 79.071C416.955 72.6069 416.724 70.7741 413.254 68.6273C411.017 67.2425 410.033 65.2614 409.542 61.1497C409.088 57.3394 407.915 54.7699 405.864 53.0902L402.854 50.6244L408.78 45.5189C412.039 42.7109 415.046 39.455 415.462 38.2836C416.538 35.2518 420.501 35.6497 424.553 39.1964C426.465 40.8699 428.604 42.239 429.306 42.239C430.008 42.239 431.827 43.3344 433.349 44.6731C434.87 46.0119 437.076 47.1073 438.25 47.1073C443.238 47.1073 448.736 58.4316 447.607 66.3817C447.157 69.5512 447.396 71.4482 448.246 71.4482C450.526 71.4482 452.523 79.3166 451.61 84.7036C450.977 88.4422 451.275 90.315 452.747 91.8649C453.844 93.0192 455.16 96.0942 455.672 98.6982C456.184 101.302 457.966 105.684 459.631 108.435C461.297 111.186 462.667 114.553 462.676 115.917C462.684 117.282 463.87 120.568 465.31 123.22C468.41 128.927 472.448 143.433 473.715 153.415C474.869 162.507 472.753 169.057 468.039 170.984C461.486 173.663 455.953 177.188 453.906 179.988C452.771 181.539 451.094 183.532 450.179 184.417C449.264 185.301 448.516 187.081 448.516 188.372C448.516 189.663 448.043 190.719 447.466 190.719C446.888 190.719 445.448 192.636 444.265 194.979C441.903 199.657 440.628 200.169 438.206 197.413Z" fill="#94ADD6"/>
<path id="path1316" d="M24.5387 170.523C24.5387 169.857 20.4984 165.503 15.5602 160.847C10.622 156.191 6.56268 151.617 6.5394 150.683C6.51613 149.748 9.10667 146.349 12.2962 143.128C15.4857 139.908 18.0953 136.668 18.0953 135.927C18.0953 135.187 19.6384 131.605 21.5244 127.968C24.5653 122.103 24.7913 120.837 23.5206 116.787C22.7324 114.275 21.7217 109.755 21.2744 106.743C20.8272 103.73 20.045 98.5276 19.5363 95.1807C19.0276 91.8338 17.92 87.9074 17.075 86.4554C16.1245 84.8221 15.8472 81.6895 16.3478 78.2403C17.1096 72.991 17.3914 72.6622 21.1699 72.6118C23.3771 72.5825 27.5026 71.7216 30.3377 70.6988C33.1729 69.676 38.1021 68.0489 41.2916 67.0831C44.4811 66.1173 48.5404 64.3344 50.3124 63.1212C53.9625 60.622 60.8443 58.6744 74.6283 56.2396C80.5264 55.1978 85.1964 53.611 86.9538 52.0518C88.9587 50.273 91.4974 49.5413 95.6642 49.5413C106.271 49.5413 115.398 43.94 121.054 33.9599C122.618 31.199 128.744 27.6344 131.924 27.6344C134.412 27.6344 136.369 32.891 136.984 41.2276C137.447 47.4988 137.22 48.2445 134.496 49.4166C130.778 51.0167 130.496 55.896 133.935 59.1434C135.85 60.9519 136.23 62.6159 135.714 66.9339C135.153 71.6346 135.452 72.6233 137.79 73.8049C140.858 75.3559 141.628 81.1846 138.764 81.1846C137.524 81.1846 136.803 83.5903 136.312 89.3601C135.93 93.8566 134.981 97.7359 134.203 97.9808C133.425 98.2258 132.788 99.9838 132.788 101.888C132.788 106.356 127.506 110.394 121.661 110.394C115.478 110.394 115.821 114.218 122.407 118.724L127.491 122.202L122.675 126.643C120.027 129.085 117.145 131.084 116.271 131.084C115.398 131.084 114.141 132.43 113.478 134.077C112.016 137.707 102.933 143.628 99.7206 143.044C97.8437 142.702 97.4769 141.638 97.7962 137.461L98.1908 132.301H93.5819C89.3644 132.301 88.9729 132.598 88.9729 135.8C88.9729 138.745 88.3356 139.419 84.9458 140.059C82.7308 140.478 79.3224 140.82 77.3714 140.82C75.4205 140.82 73.1024 141.642 72.22 142.646C71.3377 143.65 69.5598 144.471 68.2692 144.471C66.9786 144.471 65.1552 145.43 64.217 146.601C61.048 150.558 54.8445 152.762 48.7143 152.11C43.4519 151.55 42.7286 151.81 40.1946 155.17C38.6716 157.19 37.4255 159.643 37.4255 160.621C37.4255 163.336 32.3657 168.812 29.8576 168.812C28.6333 168.812 26.9356 169.469 26.0851 170.273C25.2346 171.076 24.5387 171.188 24.5387 170.523Z" fill="#94ADD6"/>
<path id="path1314" d="M290.052 135.817C288.305 135.158 284.825 134.782 282.32 134.981C276.822 135.418 273.257 132.571 273.249 127.737C273.244 124.764 272.018 123.799 262.295 119.109C251.354 113.832 251.347 113.825 251.347 109.03C251.347 104.304 251.103 104.036 245.326 102.441C242.636 101.698 245.041 97.2478 248.962 95.7141C251.549 94.702 253.011 93.1055 253.51 90.7463C253.981 88.5253 255.054 87.2699 256.483 87.2699C259.638 87.2699 268.1 79.4032 268.1 76.47C268.1 73.636 266.612 72.5683 261.208 71.5244C258.34 70.9706 257.056 69.8672 256.342 67.3432C255.807 65.4574 254.474 63.2819 253.379 62.5088C251.321 61.0567 251.87 55.6266 254.075 55.6266C254.701 55.6266 255.213 53.4359 255.213 50.7584C255.213 46.3987 255.544 45.8902 258.382 45.8902C263.198 45.8902 270.609 41.9658 270.646 39.3968C270.674 37.4045 271.548 37.2298 278.732 37.7798C283.162 38.1189 290.265 38.9321 294.518 39.5868C319.628 43.4527 326.053 43.9982 345.421 43.9081C357.116 43.8537 372.194 43.1796 378.927 42.4101C385.66 41.6406 395.519 40.7094 400.835 40.3408L410.5 39.6705L405.667 43.6931C399.98 48.427 399.536 51.8553 404.056 56.1245C406.425 58.3614 407.278 60.4635 407.278 64.0625C407.278 67.8707 407.957 69.3781 410.334 70.8492C413.154 72.594 413.272 73.0665 411.857 76.9531C410.103 81.7709 405.871 86.388 400.147 89.7291C397.973 90.9982 394.314 94.5091 392.016 97.5311C388.798 101.762 386.591 103.331 382.416 104.355C379.434 105.087 372.935 107.085 367.973 108.795C363.012 110.506 356.224 112.164 352.889 112.48C349.554 112.797 346.149 113.826 345.321 114.767C344.463 115.744 341.479 116.479 338.375 116.479C334.57 116.479 332.232 117.211 330.601 118.913C329.318 120.252 327.161 121.347 325.806 121.347C322.234 121.347 318.359 123.586 318.359 125.65C318.359 126.942 316.818 127.433 312.759 127.433C306.836 127.433 303.95 129.367 302.316 134.431C301.633 136.547 300.501 137.151 297.331 137.092C295.075 137.049 291.8 136.476 290.052 135.817Z" fill="#94ADD6"/>
<path id="path1312" d="M147.608 105.209C139.037 99.2626 138.383 98.1597 138.947 90.6168C139.319 85.6462 139.996 83.6187 141.284 83.6187C142.572 83.6187 143.098 82.0448 143.098 78.1848C143.098 74.0169 142.504 72.4508 140.549 71.4628C138.396 70.3747 138.121 69.3465 138.774 64.8423C139.423 60.3737 139.105 59.1516 136.813 57.2978C133.276 54.438 133.365 53.4466 137.311 51.7486C140.483 50.3838 140.53 50.167 139.738 40.517C139.294 35.105 138.154 29.5012 137.205 28.064C135.612 25.6511 135.796 25.3356 139.611 23.9465C149.377 20.3898 153.343 18.4179 153.374 17.1027C153.392 16.3306 156.162 15.4013 159.528 15.0377C171.735 13.7193 162.788 13.3954 167.54 10.4255C172.274 7.46666 191.162 5.91736 206.985 6.77924C222.061 7.60047 234.066 22.0907 233.344 24.2384C232.976 25.3339 233.408 30.0238 230.003 27.9984C226.598 25.973 215.229 12.2879 213.106 13.7536C209.245 16.4184 219.715 25.4555 219.715 27.9931C219.715 31.6513 220.084 38.8585 223.405 41.7018C227.358 45.0864 230.61 42.7612 239.455 42.3843C252.418 41.8321 255.602 45.1086 250.711 53.9661C248.058 58.7697 248.281 63.2718 251.257 65.0275C252.625 65.8344 253.93 67.9983 254.157 69.8363C254.503 72.6424 255.383 73.3368 259.647 74.168C262.44 74.7123 264.994 75.4112 265.322 75.721C266.548 76.8792 257.038 84.8104 254.408 84.8228C252.431 84.8322 251.464 85.8033 250.933 88.3122C250.428 90.6953 248.969 92.2689 246.293 93.3157C243.375 94.4573 242.183 95.8814 241.572 98.9569C240.835 102.666 240.42 102.997 237.352 102.316C235.481 101.901 232.42 100.218 230.55 98.5776C227.037 95.4952 220.157 93.4347 213.209 93.3841C210.888 93.3673 208.245 92.3373 206.888 90.921C203.952 87.8576 192.78 87.4129 191.602 90.3125C191.194 91.3166 189.537 92.1465 187.92 92.1567C184.439 92.1788 182.909 93.1109 180.958 96.3978C179.822 98.3129 178.173 98.8319 173.226 98.8319C167.484 98.8319 166.773 99.1556 165.03 102.563C163.523 105.511 162.306 106.291 159.231 106.28C157.091 106.272 154.47 106.632 153.407 107.079C152.295 107.546 149.833 106.753 147.608 105.209Z" fill="#94ADD6"/>
<ellipse id="G2A_Arena" cx="392.645" cy="371.239" rx="5.57207" ry="5.57416" fill="#A22020"/>
<ellipse id="Lublin" cx="435.735" cy="288.742" rx="5.57207" ry="5.57416" fill="#A22020"/>
<ellipse id="Gdansk" cx="220.282" cy="51.6539" rx="5.57207" ry="5.57416" fill="#A22020"/>
<ellipse id="Warszawa" cx="346.582" cy="210.703" rx="5.57207" ry="5.57416" fill="#A22020"/>
<ellipse id="Poznan" cx="157.875" cy="204.758" rx="5.57207" ry="5.57416" fill="#A22020"/>
<ellipse id="Kielce" cx="322.808" cy="309.552" rx="5.57207" ry="5.57416" fill="#A22020"/>
<ellipse id="Krakow" cx="293.091" cy="382.388" rx="5.57207" ry="5.57416" fill="#A22020"/>
<g id="WarszawaGroup">
<rect id="Rectangle 1_2" x="275" y="166" width="143" height="31" rx="7" fill="#343434"/>
<path id="EXPO XXI WARSZAWA" d="M282.959 186V177.273H288.43V178.406H284.276V181.065H288.145V182.195H284.276V184.866H288.482V186H282.959ZM291.105 177.273L293.194 180.686H293.262L295.35 177.273H296.875L294.157 181.636L296.892 186H295.358L293.262 182.634H293.194L291.097 186H289.563L292.346 181.636L289.58 177.273H291.105ZM298.181 186V177.273H301.292C301.971 177.273 302.534 177.396 302.98 177.643C303.426 177.891 303.76 178.229 303.981 178.658C304.203 179.084 304.314 179.564 304.314 180.098C304.314 180.635 304.201 181.118 303.977 181.547C303.755 181.973 303.42 182.311 302.971 182.561C302.525 182.808 301.964 182.932 301.288 182.932H299.149V181.815H301.169C301.598 181.815 301.946 181.741 302.213 181.594C302.48 181.443 302.676 181.239 302.801 180.98C302.926 180.722 302.988 180.428 302.988 180.098C302.988 179.768 302.926 179.476 302.801 179.22C302.676 178.964 302.478 178.764 302.208 178.619C301.941 178.474 301.589 178.402 301.152 178.402H299.498V186H298.181ZM313.438 181.636C313.438 182.568 313.268 183.369 312.927 184.04C312.586 184.707 312.119 185.222 311.525 185.582C310.934 185.94 310.262 186.119 309.509 186.119C308.754 186.119 308.079 185.94 307.485 185.582C306.894 185.222 306.428 184.706 306.087 184.036C305.746 183.365 305.576 182.565 305.576 181.636C305.576 180.705 305.746 179.905 306.087 179.237C306.428 178.567 306.894 178.053 307.485 177.695C308.079 177.334 308.754 177.153 309.509 177.153C310.262 177.153 310.934 177.334 311.525 177.695C312.119 178.053 312.586 178.567 312.927 179.237C313.268 179.905 313.438 180.705 313.438 181.636ZM312.134 181.636C312.134 180.926 312.019 180.328 311.789 179.842C311.562 179.354 311.249 178.984 310.852 178.734C310.457 178.482 310.009 178.355 309.509 178.355C309.006 178.355 308.558 178.482 308.163 178.734C307.768 178.984 307.455 179.354 307.225 179.842C306.998 180.328 306.884 180.926 306.884 181.636C306.884 182.347 306.998 182.946 307.225 183.435C307.455 183.92 307.768 184.29 308.163 184.543C308.558 184.793 309.006 184.918 309.509 184.918C310.009 184.918 310.457 184.793 310.852 184.543C311.249 184.29 311.562 183.92 311.789 183.435C312.019 182.946 312.134 182.347 312.134 181.636ZM319.172 177.273L321.26 180.686H321.328L323.416 177.273H324.942L322.223 181.636L324.959 186H323.425L321.328 182.634H321.26L319.163 186H317.629L320.412 181.636L317.646 177.273H319.172ZM327.164 177.273L329.252 180.686H329.32L331.408 177.273H332.934L330.215 181.636L332.951 186H331.417L329.32 182.634H329.252L327.156 186H325.621L328.404 181.636L325.638 177.273H327.164ZM335.557 177.273V186H334.24V177.273H335.557ZM342.359 186L339.939 177.273H341.324L343.024 184.031H343.105L344.873 177.273H346.245L348.014 184.036H348.095L349.791 177.273H351.18L348.755 186H347.43L345.593 179.463H345.525L343.689 186H342.359ZM352.368 186H350.97L354.111 177.273H355.632L358.773 186H357.375L354.908 178.858H354.839L352.368 186ZM352.602 182.582H357.136V183.69H352.602V182.582ZM360.033 186V177.273H363.144C363.82 177.273 364.381 177.389 364.827 177.622C365.276 177.855 365.611 178.178 365.833 178.589C366.054 178.999 366.165 179.472 366.165 180.009C366.165 180.543 366.053 181.013 365.828 181.419C365.607 181.822 365.272 182.136 364.823 182.361C364.377 182.585 363.816 182.697 363.14 182.697H360.783V181.564H363.02C363.446 181.564 363.793 181.503 364.06 181.381C364.33 181.259 364.527 181.081 364.652 180.848C364.777 180.615 364.84 180.335 364.84 180.009C364.84 179.679 364.776 179.393 364.648 179.152C364.523 178.911 364.326 178.726 364.056 178.598C363.789 178.467 363.438 178.402 363.003 178.402H361.35V186H360.033ZM364.341 182.062L366.498 186H364.998L362.884 182.062H364.341ZM372.527 179.565C372.482 179.162 372.294 178.849 371.965 178.628C371.635 178.403 371.221 178.291 370.721 178.291C370.363 178.291 370.053 178.348 369.792 178.462C369.53 178.572 369.327 178.726 369.182 178.922C369.04 179.115 368.969 179.335 368.969 179.582C368.969 179.79 369.017 179.969 369.114 180.119C369.213 180.27 369.343 180.396 369.502 180.499C369.664 180.598 369.837 180.682 370.022 180.75C370.206 180.815 370.384 180.869 370.554 180.912L371.407 181.134C371.685 181.202 371.971 181.294 372.263 181.411C372.556 181.527 372.827 181.68 373.077 181.871C373.327 182.061 373.529 182.297 373.682 182.578C373.838 182.859 373.917 183.196 373.917 183.588C373.917 184.082 373.789 184.521 373.533 184.905C373.28 185.288 372.912 185.591 372.429 185.812C371.949 186.034 371.368 186.145 370.686 186.145C370.033 186.145 369.468 186.041 368.99 185.834C368.513 185.626 368.14 185.332 367.87 184.952C367.6 184.568 367.451 184.114 367.422 183.588H368.743C368.769 183.903 368.871 184.166 369.05 184.376C369.232 184.584 369.463 184.739 369.745 184.841C370.029 184.94 370.34 184.99 370.678 184.99C371.05 184.99 371.381 184.932 371.671 184.815C371.963 184.696 372.194 184.531 372.361 184.321C372.529 184.108 372.613 183.859 372.613 183.575C372.613 183.317 372.539 183.105 372.391 182.94C372.246 182.776 372.049 182.639 371.799 182.531C371.551 182.423 371.272 182.328 370.959 182.246L369.928 181.964C369.229 181.774 368.675 181.494 368.266 181.125C367.86 180.756 367.657 180.267 367.657 179.659C367.657 179.156 367.793 178.717 368.066 178.342C368.338 177.967 368.708 177.676 369.174 177.469C369.64 177.259 370.165 177.153 370.75 177.153C371.341 177.153 371.863 177.257 372.314 177.464C372.769 177.672 373.127 177.957 373.388 178.321C373.65 178.682 373.786 179.097 373.797 179.565H372.527ZM375.264 186V185.122L379.854 178.406H375.226V177.273H381.464V178.151L376.875 184.866H381.503V186H375.264ZM383.891 186H382.494L385.634 177.273H387.156L390.296 186H388.898L386.431 178.858H386.363L383.891 186ZM384.126 182.582H388.66V183.69H384.126V182.582ZM392.515 186L390.095 177.273H391.48L393.18 184.031H393.261L395.029 177.273H396.402L398.17 184.036H398.251L399.947 177.273H401.336L398.912 186H397.586L395.75 179.463H395.681L393.845 186H392.515ZM402.524 186H401.126L404.267 177.273H405.788L408.929 186H407.531L405.064 178.858H404.996L402.524 186ZM402.759 182.582H407.293V183.69H402.759V182.582Z" fill="white"/>
</g>
<g id="PoznanGroup">
<rect id="Rectangle 1_3" x="87" y="153" width="143" height="42" rx="7" fill="#343434"/>
<path id="MI&#196;&#152;DZYNARODOWE TARGI POZNA&#197;&#131;SKIE" d="M100.541 162.273H102.139L104.917 169.057H105.02L107.798 162.273H109.396V171H108.143V164.685H108.062L105.488 170.987H104.449L101.875 164.68H101.794V171H100.541V162.273ZM112.627 162.273V171H111.31V162.273H112.627ZM114.545 171V162.273H120.016V163.406H115.862V166.065H119.731V167.195H115.862V169.866H120.067V171H114.545ZM119.254 173.518C118.896 173.518 118.597 173.422 118.359 173.229C118.123 173.038 117.994 172.76 117.971 172.393C117.957 172.178 117.992 171.96 118.077 171.741C118.163 171.523 118.306 171.315 118.508 171.119C118.71 170.923 118.977 170.75 119.309 170.599L120.067 171C119.806 171.168 119.58 171.345 119.39 171.533C119.2 171.72 119.104 171.933 119.104 172.172C119.104 172.303 119.137 172.405 119.202 172.479C119.268 172.553 119.38 172.589 119.539 172.589C119.656 172.589 119.759 172.574 119.85 172.543C119.941 172.511 120.015 172.482 120.072 172.453L120.183 173.263C120.083 173.322 119.955 173.379 119.799 173.433C119.646 173.49 119.464 173.518 119.254 173.518ZM124.6 171H121.775V162.273H124.69C125.545 162.273 126.279 162.447 126.893 162.797C127.507 163.143 127.977 163.642 128.304 164.293C128.633 164.94 128.798 165.717 128.798 166.624C128.798 167.533 128.632 168.314 128.299 168.967C127.97 169.621 127.493 170.124 126.868 170.476C126.243 170.825 125.487 171 124.6 171ZM123.092 169.849H124.528C125.193 169.849 125.745 169.724 126.186 169.474C126.626 169.222 126.956 168.857 127.174 168.379C127.393 167.899 127.502 167.314 127.502 166.624C127.502 165.939 127.393 165.358 127.174 164.881C126.958 164.403 126.636 164.041 126.207 163.794C125.778 163.547 125.245 163.423 124.609 163.423H123.092V169.849ZM130.21 171V170.122L134.799 163.406H130.171V162.273H136.41V163.151L131.82 169.866H136.448V171H130.21ZM137.426 162.273H138.922L141.202 166.24H141.295L143.575 162.273H145.071L141.905 167.574V171H140.592V167.574L137.426 162.273ZM153.358 162.273V171H152.148L147.712 164.599H147.631V171H146.314V162.273H147.533L151.973 168.682H152.054V162.273H153.358ZM156.016 171H154.619L157.759 162.273H159.281L162.421 171H161.023L158.556 163.858H158.488L156.016 171ZM156.251 167.582H160.785V168.69H156.251V167.582ZM163.681 171V162.273H166.792C167.468 162.273 168.029 162.389 168.475 162.622C168.924 162.855 169.26 163.178 169.481 163.589C169.703 163.999 169.814 164.472 169.814 165.009C169.814 165.543 169.701 166.013 169.477 166.419C169.255 166.822 168.92 167.136 168.471 167.361C168.025 167.585 167.464 167.697 166.788 167.697H164.431V166.564H166.669C167.095 166.564 167.441 166.503 167.708 166.381C167.978 166.259 168.176 166.081 168.301 165.848C168.426 165.615 168.488 165.335 168.488 165.009C168.488 164.679 168.424 164.393 168.297 164.152C168.172 163.911 167.974 163.726 167.704 163.598C167.437 163.467 167.086 163.402 166.652 163.402H164.998V171H163.681ZM167.99 167.062L170.146 171H168.646L166.532 167.062H167.99ZM178.997 166.636C178.997 167.568 178.826 168.369 178.485 169.04C178.145 169.707 177.677 170.222 177.083 170.582C176.493 170.94 175.821 171.119 175.068 171.119C174.312 171.119 173.637 170.94 173.044 170.582C172.453 170.222 171.987 169.706 171.646 169.036C171.305 168.365 171.135 167.565 171.135 166.636C171.135 165.705 171.305 164.905 171.646 164.237C171.987 163.567 172.453 163.053 173.044 162.695C173.637 162.334 174.312 162.153 175.068 162.153C175.821 162.153 176.493 162.334 177.083 162.695C177.677 163.053 178.145 163.567 178.485 164.237C178.826 164.905 178.997 165.705 178.997 166.636ZM177.693 166.636C177.693 165.926 177.578 165.328 177.348 164.842C177.12 164.354 176.808 163.984 176.41 163.734C176.015 163.482 175.568 163.355 175.068 163.355C174.565 163.355 174.116 163.482 173.721 163.734C173.326 163.984 173.014 164.354 172.784 164.842C172.556 165.328 172.443 165.926 172.443 166.636C172.443 167.347 172.556 167.946 172.784 168.435C173.014 168.92 173.326 169.29 173.721 169.543C174.116 169.793 174.565 169.918 175.068 169.918C175.568 169.918 176.015 169.793 176.41 169.543C176.808 169.29 177.12 168.92 177.348 168.435C177.578 167.946 177.693 167.347 177.693 166.636ZM183.464 171H180.638V162.273H183.553C184.408 162.273 185.143 162.447 185.756 162.797C186.37 163.143 186.84 163.642 187.167 164.293C187.496 164.94 187.661 165.717 187.661 166.624C187.661 167.533 187.495 168.314 187.163 168.967C186.833 169.621 186.356 170.124 185.731 170.476C185.106 170.825 184.35 171 183.464 171ZM181.955 169.849H183.391C184.056 169.849 184.609 169.724 185.049 169.474C185.489 169.222 185.819 168.857 186.038 168.379C186.256 167.899 186.366 167.314 186.366 166.624C186.366 165.939 186.256 165.358 186.038 164.881C185.822 164.403 185.499 164.041 185.07 163.794C184.641 163.547 184.109 163.423 183.472 163.423H181.955V169.849ZM196.88 166.636C196.88 167.568 196.709 168.369 196.368 169.04C196.027 169.707 195.56 170.222 194.966 170.582C194.375 170.94 193.703 171.119 192.951 171.119C192.195 171.119 191.52 170.94 190.926 170.582C190.336 170.222 189.87 169.706 189.529 169.036C189.188 168.365 189.017 167.565 189.017 166.636C189.017 165.705 189.188 164.905 189.529 164.237C189.87 163.567 190.336 163.053 190.926 162.695C191.52 162.334 192.195 162.153 192.951 162.153C193.703 162.153 194.375 162.334 194.966 162.695C195.56 163.053 196.027 163.567 196.368 164.237C196.709 164.905 196.88 165.705 196.88 166.636ZM195.576 166.636C195.576 165.926 195.461 165.328 195.23 164.842C195.003 164.354 194.691 163.984 194.293 163.734C193.898 163.482 193.451 163.355 192.951 163.355C192.448 163.355 191.999 163.482 191.604 163.734C191.209 163.984 190.897 164.354 190.667 164.842C190.439 165.328 190.326 165.926 190.326 166.636C190.326 167.347 190.439 167.946 190.667 168.435C190.897 168.92 191.209 169.29 191.604 169.543C191.999 169.793 192.448 169.918 192.951 169.918C193.451 169.918 193.898 169.793 194.293 169.543C194.691 169.29 195.003 168.92 195.23 168.435C195.461 167.946 195.576 167.347 195.576 166.636ZM200.125 171L197.704 162.273H199.089L200.789 169.031H200.87L202.639 162.273H204.011L205.779 169.036H205.86L207.556 162.273H208.946L206.521 171H205.196L203.359 164.463H203.291L201.454 171H200.125ZM210.146 171V162.273H215.618V163.406H211.463V166.065H215.332V167.195H211.463V169.866H215.669V171H210.146ZM100.843 178.406V177.273H107.597V178.406H104.874V186H103.562V178.406H100.843ZM108.796 186H107.398L110.539 177.273H112.06L115.2 186H113.803L111.335 178.858H111.267L108.796 186ZM109.03 182.582H113.564V183.69H109.03V182.582ZM116.461 186V177.273H119.572C120.248 177.273 120.809 177.389 121.255 177.622C121.704 177.855 122.039 178.178 122.26 178.589C122.482 178.999 122.593 179.472 122.593 180.009C122.593 180.543 122.481 181.013 122.256 181.419C122.035 181.822 121.699 182.136 121.251 182.361C120.805 182.585 120.243 182.697 119.567 182.697H117.211V181.564H119.448C119.874 181.564 120.221 181.503 120.488 181.381C120.758 181.259 120.955 181.081 121.08 180.848C121.205 180.615 121.268 180.335 121.268 180.009C121.268 179.679 121.204 179.393 121.076 179.152C120.951 178.911 120.753 178.726 120.483 178.598C120.216 178.467 119.866 178.402 119.431 178.402H117.778V186H116.461ZM120.769 182.062L122.925 186H121.425L119.312 182.062H120.769ZM130.101 180.03C130.019 179.771 129.908 179.54 129.769 179.335C129.633 179.128 129.469 178.952 129.279 178.807C129.089 178.659 128.871 178.547 128.627 178.47C128.385 178.393 128.12 178.355 127.83 178.355C127.339 178.355 126.895 178.482 126.501 178.734C126.106 178.987 125.793 179.358 125.563 179.847C125.336 180.332 125.222 180.928 125.222 181.632C125.222 182.339 125.337 182.937 125.567 183.426C125.797 183.915 126.113 184.286 126.513 184.538C126.914 184.791 127.37 184.918 127.881 184.918C128.356 184.918 128.769 184.821 129.121 184.628C129.476 184.435 129.751 184.162 129.944 183.81C130.14 183.455 130.238 183.037 130.238 182.557L130.579 182.621H128.081V181.534H131.512V182.527C131.512 183.26 131.356 183.896 131.043 184.436C130.733 184.973 130.305 185.388 129.756 185.68C129.211 185.973 128.586 186.119 127.881 186.119C127.091 186.119 126.398 185.938 125.802 185.574C125.208 185.21 124.745 184.695 124.412 184.027C124.08 183.357 123.914 182.561 123.914 181.641C123.914 180.945 124.01 180.32 124.204 179.766C124.397 179.212 124.668 178.741 125.018 178.355C125.37 177.966 125.783 177.669 126.258 177.464C126.735 177.257 127.256 177.153 127.822 177.153C128.293 177.153 128.732 177.223 129.138 177.362C129.547 177.501 129.911 177.699 130.229 177.955C130.55 178.21 130.816 178.514 131.026 178.866C131.236 179.216 131.378 179.604 131.452 180.03H130.101ZM134.5 177.273V186H133.183V177.273H134.5ZM139.594 186V177.273H142.704C143.383 177.273 143.946 177.396 144.392 177.643C144.838 177.891 145.172 178.229 145.393 178.658C145.615 179.084 145.726 179.564 145.726 180.098C145.726 180.635 145.613 181.118 145.389 181.547C145.167 181.973 144.832 182.311 144.383 182.561C143.937 182.808 143.376 182.932 142.7 182.932H140.561V181.815H142.581C143.01 181.815 143.358 181.741 143.625 181.594C143.892 181.443 144.088 181.239 144.213 180.98C144.338 180.722 144.4 180.428 144.4 180.098C144.4 179.768 144.338 179.476 144.213 179.22C144.088 178.964 143.89 178.764 143.621 178.619C143.354 178.474 143.001 178.402 142.564 178.402H140.91V186H139.594ZM154.85 181.636C154.85 182.568 154.68 183.369 154.339 184.04C153.998 184.707 153.531 185.222 152.937 185.582C152.346 185.94 151.674 186.119 150.921 186.119C150.166 186.119 149.491 185.94 148.897 185.582C148.306 185.222 147.84 184.706 147.499 184.036C147.159 183.365 146.988 182.565 146.988 181.636C146.988 180.705 147.159 179.905 147.499 179.237C147.84 178.567 148.306 178.053 148.897 177.695C149.491 177.334 150.166 177.153 150.921 177.153C151.674 177.153 152.346 177.334 152.937 177.695C153.531 178.053 153.998 178.567 154.339 179.237C154.68 179.905 154.85 180.705 154.85 181.636ZM153.546 181.636C153.546 180.926 153.431 180.328 153.201 179.842C152.974 179.354 152.661 178.984 152.264 178.734C151.869 178.482 151.421 178.355 150.921 178.355C150.419 178.355 149.97 178.482 149.575 178.734C149.18 178.984 148.867 179.354 148.637 179.842C148.41 180.328 148.296 180.926 148.296 181.636C148.296 182.347 148.41 182.946 148.637 183.435C148.867 183.92 149.18 184.29 149.575 184.543C149.97 184.793 150.419 184.918 150.921 184.918C151.421 184.918 151.869 184.793 152.264 184.543C152.661 184.29 152.974 183.92 153.201 183.435C153.431 182.946 153.546 182.347 153.546 181.636ZM156.266 186V185.122L160.856 178.406H156.228V177.273H162.466V178.151L157.877 184.866H162.505V186H156.266ZM171.2 177.273V186H169.99L165.554 179.599H165.473V186H164.156V177.273H165.375L169.815 183.682H169.896V177.273H171.2ZM173.858 186H172.46L175.601 177.273H177.122L180.263 186H178.865L176.398 178.858H176.33L173.858 186ZM174.093 182.582H178.627V183.69H174.093V182.582ZM188.567 177.273V186H187.357L182.921 179.599H182.84V186H181.523V177.273H182.742L187.182 183.682H187.263V177.273H188.567ZM184.523 176.399L185.52 174.435H186.863L185.542 176.399H184.523ZM195.248 179.565C195.203 179.162 195.015 178.849 194.686 178.628C194.356 178.403 193.941 178.291 193.441 178.291C193.083 178.291 192.774 178.348 192.512 178.462C192.251 178.572 192.048 178.726 191.903 178.922C191.761 179.115 191.69 179.335 191.69 179.582C191.69 179.79 191.738 179.969 191.835 180.119C191.934 180.27 192.063 180.396 192.222 180.499C192.384 180.598 192.558 180.682 192.742 180.75C192.927 180.815 193.105 180.869 193.275 180.912L194.127 181.134C194.406 181.202 194.691 181.294 194.984 181.411C195.276 181.527 195.548 181.68 195.798 181.871C196.048 182.061 196.249 182.297 196.403 182.578C196.559 182.859 196.637 183.196 196.637 183.588C196.637 184.082 196.509 184.521 196.254 184.905C196.001 185.288 195.633 185.591 195.15 185.812C194.67 186.034 194.089 186.145 193.407 186.145C192.754 186.145 192.188 186.041 191.711 185.834C191.234 185.626 190.86 185.332 190.59 184.952C190.32 184.568 190.171 184.114 190.143 183.588H191.464C191.49 183.903 191.592 184.166 191.771 184.376C191.953 184.584 192.184 184.739 192.465 184.841C192.749 184.94 193.061 184.99 193.399 184.99C193.771 184.99 194.102 184.932 194.392 184.815C194.684 184.696 194.914 184.531 195.082 184.321C195.249 184.108 195.333 183.859 195.333 183.575C195.333 183.317 195.259 183.105 195.112 182.94C194.967 182.776 194.769 182.639 194.519 182.531C194.272 182.423 193.992 182.328 193.68 182.246L192.649 181.964C191.95 181.774 191.396 181.494 190.987 181.125C190.58 180.756 190.377 180.267 190.377 179.659C190.377 179.156 190.514 178.717 190.786 178.342C191.059 177.967 191.428 177.676 191.894 177.469C192.36 177.259 192.886 177.153 193.471 177.153C194.062 177.153 194.583 177.257 195.035 177.464C195.49 177.672 195.847 177.957 196.109 178.321C196.37 178.682 196.507 179.097 196.518 179.565H195.248ZM198.211 186V177.273H199.528V181.44H199.634L203.295 177.273H204.952L201.432 181.202L204.965 186H203.38L200.559 182.101L199.528 183.286V186H198.211ZM207.496 177.273V186H206.18V177.273H207.496ZM209.414 186V177.273H214.885V178.406H210.731V181.065H214.6V182.195H210.731V184.866H214.937V186H209.414Z" fill="white"/>
</g>
<g id="AmberexpoGroup">
<rect id="Rectangle 1_4" x="149" y="11" width="143" height="31" rx="7" fill="#343434"/>
<path id="MTP - AMBEREXPO" d="M165.82 22.2727H167.418L170.197 29.0568H170.299L173.077 22.2727H174.675V31H173.422V24.6847H173.341L170.768 30.9872H169.728L167.154 24.6804H167.073V31H165.82V22.2727ZM176.159 23.4062V22.2727H182.914V23.4062H180.191V31H178.878V23.4062H176.159ZM184.406 31V22.2727H187.517C188.196 22.2727 188.758 22.3963 189.204 22.6435C189.65 22.8906 189.984 23.2287 190.206 23.6577C190.427 24.0838 190.538 24.5639 190.538 25.098C190.538 25.6349 190.426 26.1179 190.202 26.5469C189.98 26.973 189.645 27.3111 189.196 27.5611C188.75 27.8082 188.189 27.9318 187.513 27.9318H185.373V26.8153H187.393C187.822 26.8153 188.17 26.7415 188.437 26.5938C188.704 26.4432 188.9 26.2386 189.025 25.9801C189.15 25.7216 189.213 25.4276 189.213 25.098C189.213 24.7685 189.15 24.4759 189.025 24.2202C188.9 23.9645 188.703 23.7642 188.433 23.6193C188.166 23.4744 187.814 23.402 187.376 23.402H185.723V31H184.406ZM199.012 26.0824V27.1903H195.143V26.0824H199.012ZM204.725 31H203.328L206.468 22.2727H207.99L211.13 31H209.732L207.265 23.858H207.197L204.725 31ZM204.96 27.5824H209.494V28.6903H204.96V27.5824ZM212.39 22.2727H213.988L216.767 29.0568H216.869L219.648 22.2727H221.246V31H219.993V24.6847H219.912L217.338 30.9872H216.298L213.724 24.6804H213.643V31H212.39V22.2727ZM223.16 31V22.2727H226.356C226.975 22.2727 227.488 22.375 227.894 22.5795C228.301 22.7812 228.605 23.0554 228.806 23.402C229.008 23.7457 229.109 24.1335 229.109 24.5653C229.109 24.929 229.042 25.2358 228.909 25.4858C228.775 25.733 228.596 25.9318 228.372 26.0824C228.15 26.2301 227.906 26.3381 227.639 26.4062V26.4915C227.928 26.5057 228.211 26.5994 228.487 26.7727C228.765 26.9432 228.995 27.1861 229.177 27.5014C229.359 27.8168 229.45 28.2003 229.45 28.652C229.45 29.098 229.345 29.4986 229.134 29.8537C228.927 30.206 228.606 30.4858 228.171 30.6932C227.737 30.8977 227.181 31 226.505 31H223.16ZM224.477 29.8707H226.377C227.008 29.8707 227.46 29.7486 227.732 29.5043C228.005 29.2599 228.142 28.9545 228.142 28.5881C228.142 28.3125 228.072 28.0597 227.933 27.8295C227.794 27.5994 227.595 27.4162 227.336 27.2798C227.08 27.1435 226.776 27.0753 226.424 27.0753H224.477V29.8707ZM224.477 26.0483H226.241C226.536 26.0483 226.802 25.9915 227.038 25.8778C227.276 25.7642 227.465 25.6051 227.605 25.4006C227.747 25.1932 227.818 24.9489 227.818 24.6676C227.818 24.3068 227.691 24.0043 227.438 23.7599C227.186 23.5156 226.798 23.3935 226.275 23.3935H224.477V26.0483ZM231.012 31V22.2727H236.483V23.4062H232.328V26.0653H236.198V27.1946H232.328V29.8665H236.534V31H231.012ZM238.242 31V22.2727H241.353C242.029 22.2727 242.59 22.3892 243.036 22.6222C243.485 22.8551 243.82 23.1776 244.042 23.5895C244.263 23.9986 244.374 24.4716 244.374 25.0085C244.374 25.5426 244.262 26.0128 244.037 26.419C243.816 26.8224 243.481 27.1364 243.032 27.3608C242.586 27.5852 242.025 27.6974 241.349 27.6974H238.992V26.5639H241.229C241.655 26.5639 242.002 26.5028 242.269 26.3807C242.539 26.2585 242.736 26.081 242.861 25.848C242.986 25.6151 243.049 25.3352 243.049 25.0085C243.049 24.679 242.985 24.3935 242.857 24.152C242.732 23.9105 242.535 23.7259 242.265 23.598C241.998 23.4673 241.647 23.402 241.212 23.402H239.559V31H238.242ZM242.55 27.0625L244.706 31H243.206L241.093 27.0625H242.55ZM245.976 31V22.2727H251.448V23.4062H247.293V26.0653H251.162V27.1946H247.293V29.8665H251.499V31H245.976ZM254.123 22.2727L256.211 25.6861H256.279L258.367 22.2727H259.893L257.174 26.6364L259.91 31H258.376L256.279 27.6335H256.211L254.115 31H252.58L255.363 26.6364L252.597 22.2727H254.123ZM261.199 31V22.2727H264.31C264.989 22.2727 265.551 22.3963 265.997 22.6435C266.443 22.8906 266.777 23.2287 266.999 23.6577C267.22 24.0838 267.331 24.5639 267.331 25.098C267.331 25.6349 267.219 26.1179 266.994 26.5469C266.773 26.973 266.438 27.3111 265.989 27.5611C265.543 27.8082 264.982 27.9318 264.306 27.9318H262.166V26.8153H264.186C264.615 26.8153 264.963 26.7415 265.23 26.5938C265.497 26.4432 265.693 26.2386 265.818 25.9801C265.943 25.7216 266.006 25.4276 266.006 25.098C266.006 24.7685 265.943 24.4759 265.818 24.2202C265.693 23.9645 265.496 23.7642 265.226 23.6193C264.959 23.4744 264.607 23.402 264.169 23.402H262.516V31H261.199ZM276.456 26.6364C276.456 27.5682 276.285 28.3693 275.944 29.0398C275.604 29.7074 275.136 30.2216 274.542 30.5824C273.952 30.9403 273.28 31.1193 272.527 31.1193C271.771 31.1193 271.096 30.9403 270.503 30.5824C269.912 30.2216 269.446 29.706 269.105 29.0355C268.764 28.3651 268.594 27.5653 268.594 26.6364C268.594 25.7045 268.764 24.9048 269.105 24.2372C269.446 23.5668 269.912 23.0526 270.503 22.6946C271.096 22.3338 271.771 22.1534 272.527 22.1534C273.28 22.1534 273.952 22.3338 274.542 22.6946C275.136 23.0526 275.604 23.5668 275.944 24.2372C276.285 24.9048 276.456 25.7045 276.456 26.6364ZM275.152 26.6364C275.152 25.9261 275.037 25.3281 274.807 24.8423C274.579 24.3537 274.267 23.9844 273.869 23.7344C273.474 23.4815 273.027 23.3551 272.527 23.3551C272.024 23.3551 271.575 23.4815 271.18 23.7344C270.785 23.9844 270.473 24.3537 270.243 24.8423C270.015 25.3281 269.902 25.9261 269.902 26.6364C269.902 27.3466 270.015 27.946 270.243 28.4347C270.473 28.9205 270.785 29.2898 271.18 29.5426C271.575 29.7926 272.024 29.9176 272.527 29.9176C273.027 29.9176 273.474 29.7926 273.869 29.5426C274.267 29.2898 274.579 28.9205 274.807 28.4347C275.037 27.946 275.152 27.3466 275.152 26.6364Z" fill="white"/>
</g>
<g id="KielceGroup">
<rect id="Rectangle 1_5" x="263" y="268" width="120" height="31" rx="7" fill="#343434"/>
<path id="TARGI KIELCE" d="M284.327 280.406V279.273H291.081V280.406H288.358V288H287.046V280.406H284.327ZM292.28 288H290.882L294.023 279.273H295.544L298.684 288H297.287L294.819 280.858H294.751L292.28 288ZM292.514 284.582H297.048V285.69H292.514V284.582ZM299.945 288V279.273H303.056C303.732 279.273 304.293 279.389 304.739 279.622C305.188 279.855 305.523 280.178 305.745 280.589C305.966 280.999 306.077 281.472 306.077 282.009C306.077 282.543 305.965 283.013 305.74 283.419C305.519 283.822 305.183 284.136 304.735 284.361C304.289 284.585 303.727 284.697 303.051 284.697H300.695V283.564H302.932C303.358 283.564 303.705 283.503 303.972 283.381C304.242 283.259 304.439 283.081 304.564 282.848C304.689 282.615 304.752 282.335 304.752 282.009C304.752 281.679 304.688 281.393 304.56 281.152C304.435 280.911 304.237 280.726 303.968 280.598C303.7 280.467 303.35 280.402 302.915 280.402H301.262V288H299.945ZM304.253 284.062L306.409 288H304.909L302.796 284.062H304.253ZM313.585 282.03C313.503 281.771 313.392 281.54 313.253 281.335C313.117 281.128 312.953 280.952 312.763 280.807C312.573 280.659 312.355 280.547 312.111 280.47C311.87 280.393 311.604 280.355 311.314 280.355C310.823 280.355 310.379 280.482 309.985 280.734C309.59 280.987 309.277 281.358 309.047 281.847C308.82 282.332 308.706 282.928 308.706 283.632C308.706 284.339 308.821 284.937 309.051 285.426C309.281 285.915 309.597 286.286 309.997 286.538C310.398 286.791 310.854 286.918 311.365 286.918C311.84 286.918 312.253 286.821 312.605 286.628C312.96 286.435 313.235 286.162 313.428 285.81C313.624 285.455 313.722 285.037 313.722 284.557L314.063 284.621H311.566V283.534H314.996V284.527C314.996 285.26 314.84 285.896 314.527 286.436C314.218 286.973 313.789 287.388 313.24 287.68C312.695 287.973 312.07 288.119 311.365 288.119C310.575 288.119 309.882 287.938 309.286 287.574C308.692 287.21 308.229 286.695 307.897 286.027C307.564 285.357 307.398 284.561 307.398 283.641C307.398 282.945 307.495 282.32 307.688 281.766C307.881 281.212 308.152 280.741 308.502 280.355C308.854 279.966 309.267 279.669 309.742 279.464C310.219 279.257 310.74 279.153 311.306 279.153C311.777 279.153 312.216 279.223 312.622 279.362C313.031 279.501 313.395 279.699 313.713 279.955C314.034 280.21 314.3 280.514 314.51 280.866C314.72 281.216 314.862 281.604 314.936 282.03H313.585ZM317.984 279.273V288H316.667V279.273H317.984ZM323.078 288V279.273H324.394V283.44H324.501L328.161 279.273H329.819L326.299 283.202L329.832 288H328.247L325.426 284.101L324.394 285.286V288H323.078ZM332.363 279.273V288H331.046V279.273H332.363ZM334.281 288V279.273H339.752V280.406H335.597V283.065H339.467V284.195H335.597V286.866H339.803V288H334.281ZM341.511 288V279.273H342.828V286.866H346.783V288H341.511ZM355.193 282.111H353.864C353.813 281.827 353.718 281.577 353.578 281.361C353.439 281.145 353.269 280.962 353.067 280.811C352.865 280.661 352.639 280.547 352.389 280.47C352.142 280.393 351.879 280.355 351.601 280.355C351.098 280.355 350.648 280.482 350.25 280.734C349.855 280.987 349.543 281.358 349.313 281.847C349.085 282.335 348.972 282.932 348.972 283.636C348.972 284.347 349.085 284.946 349.313 285.435C349.543 285.923 349.857 286.293 350.254 286.543C350.652 286.793 351.1 286.918 351.597 286.918C351.872 286.918 352.134 286.881 352.381 286.807C352.631 286.73 352.857 286.618 353.058 286.47C353.26 286.322 353.431 286.142 353.57 285.929C353.712 285.713 353.81 285.466 353.864 285.188L355.193 285.192C355.122 285.621 354.985 286.016 354.78 286.376C354.578 286.734 354.318 287.044 354 287.305C353.685 287.564 353.324 287.764 352.918 287.906C352.512 288.048 352.068 288.119 351.588 288.119C350.833 288.119 350.159 287.94 349.568 287.582C348.977 287.222 348.512 286.706 348.171 286.036C347.833 285.365 347.664 284.565 347.664 283.636C347.664 282.705 347.834 281.905 348.175 281.237C348.516 280.567 348.982 280.053 349.573 279.695C350.164 279.334 350.835 279.153 351.588 279.153C352.051 279.153 352.483 279.22 352.884 279.354C353.287 279.484 353.649 279.678 353.97 279.933C354.291 280.186 354.557 280.496 354.767 280.862C354.977 281.226 355.12 281.642 355.193 282.111ZM356.769 288V279.273H362.241V280.406H358.086V283.065H361.955V284.195H358.086V286.866H362.292V288H356.769Z" fill="white"/>
</g>
<g id="KrakowGroup">
<rect id="Rectangle 1_6" x="221" y="341" width="143" height="31" rx="7" fill="#343434"/>
<path id="TARGI W KRAKOWIE" d="M235.439 353.406V352.273H242.193V353.406H239.47V361H238.157V353.406H235.439ZM243.391 361H241.994L245.134 352.273H246.656L249.796 361H248.398L245.931 353.858H245.863L243.391 361ZM243.626 357.582H248.16V358.69H243.626V357.582ZM251.056 361V352.273H254.167C254.843 352.273 255.404 352.389 255.85 352.622C256.299 352.855 256.635 353.178 256.856 353.589C257.078 353.999 257.189 354.472 257.189 355.009C257.189 355.543 257.076 356.013 256.852 356.419C256.63 356.822 256.295 357.136 255.846 357.361C255.4 357.585 254.839 357.697 254.163 357.697H251.806V356.564H254.044C254.47 356.564 254.816 356.503 255.083 356.381C255.353 356.259 255.551 356.081 255.676 355.848C255.801 355.615 255.863 355.335 255.863 355.009C255.863 354.679 255.799 354.393 255.672 354.152C255.547 353.911 255.349 353.726 255.079 353.598C254.812 353.467 254.461 353.402 254.027 353.402H252.373V361H251.056ZM255.365 357.062L257.521 361H256.021L253.907 357.062H255.365ZM264.697 355.03C264.615 354.771 264.504 354.54 264.365 354.335C264.228 354.128 264.065 353.952 263.875 353.807C263.684 353.659 263.467 353.547 263.223 353.47C262.981 353.393 262.716 353.355 262.426 353.355C261.934 353.355 261.491 353.482 261.096 353.734C260.701 353.987 260.389 354.358 260.159 354.847C259.931 355.332 259.818 355.928 259.818 356.632C259.818 357.339 259.933 357.937 260.163 358.426C260.393 358.915 260.708 359.286 261.109 359.538C261.51 359.791 261.966 359.918 262.477 359.918C262.951 359.918 263.365 359.821 263.717 359.628C264.072 359.435 264.346 359.162 264.539 358.81C264.735 358.455 264.833 358.037 264.833 357.557L265.174 357.621H262.677V356.534H266.108V357.527C266.108 358.26 265.951 358.896 265.639 359.436C265.329 359.973 264.9 360.388 264.352 360.68C263.806 360.973 263.181 361.119 262.477 361.119C261.687 361.119 260.994 360.938 260.397 360.574C259.804 360.21 259.341 359.695 259.008 359.027C258.676 358.357 258.51 357.561 258.51 356.641C258.51 355.945 258.606 355.32 258.799 354.766C258.993 354.212 259.264 353.741 259.613 353.355C259.966 352.966 260.379 352.669 260.853 352.464C261.331 352.257 261.852 352.153 262.417 352.153C262.889 352.153 263.328 352.223 263.734 352.362C264.143 352.501 264.507 352.699 264.825 352.955C265.146 353.21 265.412 353.514 265.622 353.866C265.832 354.216 265.974 354.604 266.048 355.03H264.697ZM269.096 352.273V361H267.779V352.273H269.096ZM275.898 361L273.478 352.273H274.863L276.563 359.031H276.644L278.412 352.273H279.784L281.553 359.036H281.634L283.33 352.273H284.719L282.294 361H280.969L279.132 354.463H279.064L277.228 361H275.898ZM289.096 361V352.273H290.412V356.44H290.519L294.179 352.273H295.837L292.317 356.202L295.85 361H294.265L291.444 357.101L290.412 358.286V361H289.096ZM297.064 361V352.273H300.175C300.851 352.273 301.412 352.389 301.858 352.622C302.307 352.855 302.642 353.178 302.864 353.589C303.086 353.999 303.196 354.472 303.196 355.009C303.196 355.543 303.084 356.013 302.86 356.419C302.638 356.822 302.303 357.136 301.854 357.361C301.408 357.585 300.847 357.697 300.171 357.697H297.814V356.564H300.051C300.478 356.564 300.824 356.503 301.091 356.381C301.361 356.259 301.559 356.081 301.684 355.848C301.809 355.615 301.871 355.335 301.871 355.009C301.871 354.679 301.807 354.393 301.679 354.152C301.554 353.911 301.357 353.726 301.087 353.598C300.82 353.467 300.469 353.402 300.034 353.402H298.381V361H297.064ZM301.373 357.062L303.529 361H302.029L299.915 357.062H301.373ZM305.536 361H304.138L307.279 352.273H308.8L311.941 361H310.543L308.076 353.858H308.007L305.536 361ZM305.77 357.582H310.304V358.69H305.77V357.582ZM313.201 361V352.273H314.518V356.44H314.624L318.285 352.273H319.942L316.423 356.202L319.955 361H318.37L315.549 357.101L314.518 358.286V361H313.201ZM328.317 356.636C328.317 357.568 328.147 358.369 327.806 359.04C327.465 359.707 326.998 360.222 326.404 360.582C325.813 360.94 325.141 361.119 324.388 361.119C323.632 361.119 322.958 360.94 322.364 360.582C321.773 360.222 321.307 359.706 320.966 359.036C320.625 358.365 320.455 357.565 320.455 356.636C320.455 355.705 320.625 354.905 320.966 354.237C321.307 353.567 321.773 353.053 322.364 352.695C322.958 352.334 323.632 352.153 324.388 352.153C325.141 352.153 325.813 352.334 326.404 352.695C326.998 353.053 327.465 353.567 327.806 354.237C328.147 354.905 328.317 355.705 328.317 356.636ZM327.013 356.636C327.013 355.926 326.898 355.328 326.668 354.842C326.441 354.354 326.128 353.984 325.73 353.734C325.336 353.482 324.888 353.355 324.388 353.355C323.885 353.355 323.436 353.482 323.042 353.734C322.647 353.984 322.334 354.354 322.104 354.842C321.877 355.328 321.763 355.926 321.763 356.636C321.763 357.347 321.877 357.946 322.104 358.435C322.334 358.92 322.647 359.29 323.042 359.543C323.436 359.793 323.885 359.918 324.388 359.918C324.888 359.918 325.336 359.793 325.73 359.543C326.128 359.29 326.441 358.92 326.668 358.435C326.898 357.946 327.013 357.347 327.013 356.636ZM331.562 361L329.142 352.273H330.527L332.227 359.031H332.308L334.076 352.273H335.449L337.217 359.036H337.298L338.994 352.273H340.383L337.958 361H336.633L334.797 354.463H334.728L332.892 361H331.562ZM342.901 352.273V361H341.584V352.273H342.901ZM344.818 361V352.273H350.29V353.406H346.135V356.065H350.004V357.195H346.135V359.866H350.341V361H344.818Z" fill="white"/>
</g>
<g id="G2AArenaGroup">
<rect id="Rectangle 1_7" x="339" y="330" width="107" height="31" rx="7" fill="#343434"/>
<path id="G2A ARENA" d="M365.409 344.03C365.327 343.771 365.216 343.54 365.077 343.335C364.94 343.128 364.777 342.952 364.587 342.807C364.396 342.659 364.179 342.547 363.935 342.47C363.693 342.393 363.428 342.355 363.138 342.355C362.646 342.355 362.203 342.482 361.808 342.734C361.413 342.987 361.101 343.358 360.871 343.847C360.643 344.332 360.53 344.928 360.53 345.632C360.53 346.339 360.645 346.937 360.875 347.426C361.105 347.915 361.42 348.286 361.821 348.538C362.222 348.791 362.678 348.918 363.189 348.918C363.663 348.918 364.077 348.821 364.429 348.628C364.784 348.435 365.058 348.162 365.251 347.81C365.447 347.455 365.545 347.037 365.545 346.557L365.886 346.621H363.389V345.534H366.82V346.527C366.82 347.26 366.663 347.896 366.351 348.436C366.041 348.973 365.612 349.388 365.064 349.68C364.518 349.973 363.893 350.119 363.189 350.119C362.399 350.119 361.706 349.938 361.109 349.574C360.516 349.21 360.053 348.695 359.72 348.027C359.388 347.357 359.222 346.561 359.222 345.641C359.222 344.945 359.318 344.32 359.511 343.766C359.705 343.212 359.976 342.741 360.325 342.355C360.678 341.966 361.091 341.669 361.565 341.464C362.043 341.257 362.564 341.153 363.129 341.153C363.601 341.153 364.04 341.223 364.446 341.362C364.855 341.501 365.219 341.699 365.537 341.955C365.858 342.21 366.124 342.514 366.334 342.866C366.544 343.216 366.686 343.604 366.76 344.03H365.409ZM368.372 350V349.045L371.325 345.986C371.64 345.653 371.9 345.362 372.105 345.112C372.312 344.859 372.467 344.619 372.569 344.392C372.672 344.165 372.723 343.923 372.723 343.668C372.723 343.378 372.654 343.128 372.518 342.918C372.382 342.705 372.196 342.541 371.96 342.428C371.724 342.311 371.458 342.253 371.163 342.253C370.851 342.253 370.578 342.317 370.345 342.445C370.112 342.572 369.933 342.753 369.808 342.986C369.683 343.219 369.62 343.491 369.62 343.804H368.363C368.363 343.273 368.485 342.808 368.73 342.411C368.974 342.013 369.309 341.705 369.735 341.486C370.162 341.264 370.646 341.153 371.189 341.153C371.737 341.153 372.22 341.263 372.637 341.482C373.058 341.697 373.386 341.993 373.622 342.368C373.858 342.74 373.976 343.161 373.976 343.629C373.976 343.953 373.914 344.27 373.792 344.58C373.673 344.889 373.464 345.234 373.166 345.615C372.868 345.993 372.453 346.452 371.922 346.991L370.187 348.807V348.871H374.116V350H368.372ZM376.588 350H375.19L378.331 341.273H379.852L382.993 350H381.595L379.128 342.858H379.059L376.588 350ZM376.822 346.582H381.356V347.69H376.822V346.582ZM388.166 350H386.768L389.909 341.273H391.43L394.571 350H393.173L390.706 342.858H390.637L388.166 350ZM388.4 346.582H392.934V347.69H388.4V346.582ZM395.831 350V341.273H398.942C399.618 341.273 400.179 341.389 400.625 341.622C401.074 341.855 401.409 342.178 401.631 342.589C401.852 342.999 401.963 343.472 401.963 344.009C401.963 344.543 401.851 345.013 401.626 345.419C401.405 345.822 401.07 346.136 400.621 346.361C400.175 346.585 399.614 346.697 398.938 346.697H396.581V345.564H398.818C399.244 345.564 399.591 345.503 399.858 345.381C400.128 345.259 400.325 345.081 400.45 344.848C400.575 344.615 400.638 344.335 400.638 344.009C400.638 343.679 400.574 343.393 400.446 343.152C400.321 342.911 400.124 342.726 399.854 342.598C399.587 342.467 399.236 342.402 398.801 342.402H397.148V350H395.831ZM400.139 346.062L402.295 350H400.795L398.682 346.062H400.139ZM403.565 350V341.273H409.037V342.406H404.882V345.065H408.751V346.195H404.882V348.866H409.088V350H403.565ZM417.84 341.273V350H416.63L412.194 343.599H412.113V350H410.796V341.273H412.015L416.455 347.682H416.536V341.273H417.84ZM420.498 350H419.1L422.241 341.273H423.762L426.903 350H425.505L423.038 342.858H422.969L420.498 350ZM420.732 346.582H425.266V347.69H420.732V346.582Z" fill="white"/>
</g>
</g>
</svg>
